<mxfile host="65bd71144e">
    <diagram id="RlCUwnaK-4LFBKvAwP7c" name="Page-1">
        <mxGraphModel dx="1694" dy="442" grid="1" gridSize="10" guides="1" tooltips="1" connect="1" arrows="1" fold="1" page="1" pageScale="1" pageWidth="827" pageHeight="1169" math="0" shadow="0">
            <root>
                <mxCell id="0"/>
                <mxCell id="1" parent="0"/>
                <mxCell id="0ODxhAR9AB6k-3VPqA4q-3" value="" style="edgeStyle=orthogonalEdgeStyle;rounded=0;orthogonalLoop=1;jettySize=auto;html=1;" parent="1" source="0ODxhAR9AB6k-3VPqA4q-1" target="0ODxhAR9AB6k-3VPqA4q-2" edge="1">
                    <mxGeometry relative="1" as="geometry"/>
                </mxCell>
                <mxCell id="0ODxhAR9AB6k-3VPqA4q-12" value="TRUE" style="edgeLabel;html=1;align=center;verticalAlign=middle;resizable=0;points=[];" parent="0ODxhAR9AB6k-3VPqA4q-3" vertex="1" connectable="0">
                    <mxGeometry x="-0.2464" relative="1" as="geometry">
                        <mxPoint as="offset"/>
                    </mxGeometry>
                </mxCell>
                <mxCell id="0ODxhAR9AB6k-3VPqA4q-5" value="" style="edgeStyle=orthogonalEdgeStyle;rounded=0;orthogonalLoop=1;jettySize=auto;html=1;" parent="1" source="0ODxhAR9AB6k-3VPqA4q-1" target="0ODxhAR9AB6k-3VPqA4q-4" edge="1">
                    <mxGeometry relative="1" as="geometry"/>
                </mxCell>
                <mxCell id="0ODxhAR9AB6k-3VPqA4q-6" value="&lt;font size=&quot;1&quot;&gt;FALSE&lt;/font&gt;" style="edgeLabel;html=1;align=center;verticalAlign=middle;resizable=0;points=[];" parent="0ODxhAR9AB6k-3VPqA4q-5" vertex="1" connectable="0">
                    <mxGeometry x="-0.2175" relative="1" as="geometry">
                        <mxPoint as="offset"/>
                    </mxGeometry>
                </mxCell>
                <mxCell id="0ODxhAR9AB6k-3VPqA4q-1" value="&lt;font style=&quot;font-size: 9px&quot;&gt;배출자가 자신의 오더를 &lt;br style=&quot;font-size: 9px&quot;&gt;삭제하지 않았는가?&lt;br style=&quot;font-size: 9px&quot;&gt;ORDER.IS_DELETED = FALSE&lt;/font&gt;" style="rhombus;whiteSpace=wrap;html=1;" parent="1" vertex="1">
                    <mxGeometry x="300" y="40" width="228" height="110" as="geometry"/>
                </mxCell>
                <mxCell id="0ODxhAR9AB6k-3VPqA4q-11" value="" style="edgeStyle=orthogonalEdgeStyle;rounded=0;orthogonalLoop=1;jettySize=auto;html=1;" parent="1" source="0ODxhAR9AB6k-3VPqA4q-2" target="0ODxhAR9AB6k-3VPqA4q-10" edge="1">
                    <mxGeometry relative="1" as="geometry"/>
                </mxCell>
                <mxCell id="0ODxhAR9AB6k-3VPqA4q-13" value="TRUE" style="edgeLabel;html=1;align=center;verticalAlign=middle;resizable=0;points=[];" parent="0ODxhAR9AB6k-3VPqA4q-11" vertex="1" connectable="0">
                    <mxGeometry x="-0.1988" y="1" relative="1" as="geometry">
                        <mxPoint as="offset"/>
                    </mxGeometry>
                </mxCell>
                <mxCell id="0ODxhAR9AB6k-3VPqA4q-255" style="edgeStyle=orthogonalEdgeStyle;rounded=0;orthogonalLoop=1;jettySize=auto;html=1;entryX=0.5;entryY=0;entryDx=0;entryDy=0;fontSize=11;shape=link;" parent="1" source="0ODxhAR9AB6k-3VPqA4q-2" target="0ODxhAR9AB6k-3VPqA4q-67" edge="1">
                    <mxGeometry relative="1" as="geometry">
                        <Array as="points">
                            <mxPoint x="220" y="285"/>
                            <mxPoint x="220" y="1340"/>
                            <mxPoint x="414" y="1340"/>
                        </Array>
                    </mxGeometry>
                </mxCell>
                <mxCell id="0ODxhAR9AB6k-3VPqA4q-262" value="FALSE" style="edgeLabel;html=1;align=center;verticalAlign=middle;resizable=0;points=[];fontSize=11;" parent="0ODxhAR9AB6k-3VPqA4q-255" vertex="1" connectable="0">
                    <mxGeometry x="-0.9301" relative="1" as="geometry">
                        <mxPoint x="8" as="offset"/>
                    </mxGeometry>
                </mxCell>
                <mxCell id="0ODxhAR9AB6k-3VPqA4q-2" value="&lt;font style=&quot;font-size: 8px&quot;&gt;방문마감일이 존재하는가?&lt;br style=&quot;font-size: 8px&quot;&gt;ORDER.VISIT_END_AT &lt;br style=&quot;font-size: 8px&quot;&gt;IS NOT NULL&lt;/font&gt;" style="rhombus;whiteSpace=wrap;html=1;" parent="1" vertex="1">
                    <mxGeometry x="300" y="230" width="228" height="110" as="geometry"/>
                </mxCell>
                <mxCell id="0ODxhAR9AB6k-3VPqA4q-4" value="&lt;font style=&quot;font-size: 10px&quot;&gt;214&lt;br&gt;삭제&lt;br&gt;&lt;/font&gt;" style="whiteSpace=wrap;html=1;" parent="1" vertex="1">
                    <mxGeometry x="662" y="65" width="120" height="60" as="geometry"/>
                </mxCell>
                <mxCell id="0ODxhAR9AB6k-3VPqA4q-15" value="" style="edgeStyle=orthogonalEdgeStyle;rounded=0;orthogonalLoop=1;jettySize=auto;html=1;" parent="1" source="0ODxhAR9AB6k-3VPqA4q-10" target="0ODxhAR9AB6k-3VPqA4q-14" edge="1">
                    <mxGeometry relative="1" as="geometry"/>
                </mxCell>
                <mxCell id="0ODxhAR9AB6k-3VPqA4q-16" value="&lt;font style=&quot;font-size: 10px&quot;&gt;FALSE&lt;/font&gt;" style="edgeLabel;html=1;align=center;verticalAlign=middle;resizable=0;points=[];" parent="0ODxhAR9AB6k-3VPqA4q-15" vertex="1" connectable="0">
                    <mxGeometry x="-0.1655" relative="1" as="geometry">
                        <mxPoint as="offset"/>
                    </mxGeometry>
                </mxCell>
                <mxCell id="0ODxhAR9AB6k-3VPqA4q-30" value="" style="edgeStyle=orthogonalEdgeStyle;rounded=0;orthogonalLoop=1;jettySize=auto;html=1;fontSize=9;" parent="1" source="0ODxhAR9AB6k-3VPqA4q-10" target="0ODxhAR9AB6k-3VPqA4q-29" edge="1">
                    <mxGeometry relative="1" as="geometry"/>
                </mxCell>
                <mxCell id="0ODxhAR9AB6k-3VPqA4q-34" value="TRUE" style="edgeLabel;html=1;align=center;verticalAlign=middle;resizable=0;points=[];fontSize=9;" parent="0ODxhAR9AB6k-3VPqA4q-30" vertex="1" connectable="0">
                    <mxGeometry x="-0.2917" y="2" relative="1" as="geometry">
                        <mxPoint as="offset"/>
                    </mxGeometry>
                </mxCell>
                <mxCell id="0ODxhAR9AB6k-3VPqA4q-10" value="&lt;font style=&quot;font-size: 10px&quot;&gt;수거자의 방문신청이 존재하는가?&lt;br&gt;BIDDING.DATE_OF_VISIT&lt;br&gt;IS NOT NULL&lt;/font&gt;" style="rhombus;whiteSpace=wrap;html=1;" parent="1" vertex="1">
                    <mxGeometry x="300" y="420" width="228" height="110" as="geometry"/>
                </mxCell>
                <mxCell id="0ODxhAR9AB6k-3VPqA4q-21" value="" style="edgeStyle=orthogonalEdgeStyle;rounded=0;orthogonalLoop=1;jettySize=auto;html=1;" parent="1" source="0ODxhAR9AB6k-3VPqA4q-14" target="0ODxhAR9AB6k-3VPqA4q-20" edge="1">
                    <mxGeometry relative="1" as="geometry"/>
                </mxCell>
                <mxCell id="0ODxhAR9AB6k-3VPqA4q-22" value="&lt;font style=&quot;font-size: 10px&quot;&gt;FALSE&lt;/font&gt;" style="edgeLabel;html=1;align=center;verticalAlign=middle;resizable=0;points=[];" parent="0ODxhAR9AB6k-3VPqA4q-21" vertex="1" connectable="0">
                    <mxGeometry x="-0.2161" y="-1" relative="1" as="geometry">
                        <mxPoint as="offset"/>
                    </mxGeometry>
                </mxCell>
                <mxCell id="0ODxhAR9AB6k-3VPqA4q-24" value="" style="edgeStyle=orthogonalEdgeStyle;rounded=0;orthogonalLoop=1;jettySize=auto;html=1;" parent="1" source="0ODxhAR9AB6k-3VPqA4q-14" target="0ODxhAR9AB6k-3VPqA4q-23" edge="1">
                    <mxGeometry relative="1" as="geometry"/>
                </mxCell>
                <mxCell id="0ODxhAR9AB6k-3VPqA4q-25" value="&lt;font style=&quot;font-size: 10px&quot;&gt;TRUE&lt;/font&gt;" style="edgeLabel;html=1;align=center;verticalAlign=middle;resizable=0;points=[];" parent="0ODxhAR9AB6k-3VPqA4q-24" vertex="1" connectable="0">
                    <mxGeometry x="-0.1991" y="-1" relative="1" as="geometry">
                        <mxPoint as="offset"/>
                    </mxGeometry>
                </mxCell>
                <mxCell id="0ODxhAR9AB6k-3VPqA4q-14" value="&lt;font style=&quot;font-size: 10px&quot;&gt;방문마감일이 지났는가?&lt;br&gt;ORDER.VISIT_END_AT&lt;br&gt;&amp;lt;= NOW()&lt;/font&gt;" style="rhombus;whiteSpace=wrap;html=1;" parent="1" vertex="1">
                    <mxGeometry x="608" y="420" width="228" height="110" as="geometry"/>
                </mxCell>
                <mxCell id="0ODxhAR9AB6k-3VPqA4q-20" value="&lt;font style=&quot;font-size: 10px&quot;&gt;&lt;font style=&quot;font-size: 11px&quot;&gt;204&lt;br&gt;&lt;/font&gt;&lt;table style=&quot;font-size: 11px&quot;&gt;&lt;tbody&gt;&lt;tr&gt;&lt;td&gt;방문신청중&lt;/td&gt;&lt;/tr&gt;&lt;/tbody&gt;&lt;/table&gt;&lt;/font&gt;" style="whiteSpace=wrap;html=1;" parent="1" vertex="1">
                    <mxGeometry x="970" y="445" width="120" height="60" as="geometry"/>
                </mxCell>
                <mxCell id="0ODxhAR9AB6k-3VPqA4q-23" value="&lt;font style=&quot;font-size: 10px&quot;&gt;&lt;font style=&quot;font-size: 11px&quot;&gt;230&lt;br&gt;&lt;/font&gt;&lt;table style=&quot;font-size: 11px&quot;&gt;&lt;tbody&gt;&lt;tr&gt;&lt;td&gt;방문미신청종료&lt;/td&gt;&lt;/tr&gt;&lt;/tbody&gt;&lt;/table&gt;&lt;/font&gt;" style="whiteSpace=wrap;html=1;" parent="1" vertex="1">
                    <mxGeometry x="662" y="255" width="120" height="60" as="geometry"/>
                </mxCell>
                <mxCell id="0ODxhAR9AB6k-3VPqA4q-32" value="" style="edgeStyle=orthogonalEdgeStyle;rounded=0;orthogonalLoop=1;jettySize=auto;html=1;fontSize=9;" parent="1" source="0ODxhAR9AB6k-3VPqA4q-29" target="0ODxhAR9AB6k-3VPqA4q-31" edge="1">
                    <mxGeometry relative="1" as="geometry"/>
                </mxCell>
                <mxCell id="0ODxhAR9AB6k-3VPqA4q-33" value="TRUE" style="edgeLabel;html=1;align=center;verticalAlign=middle;resizable=0;points=[];fontSize=9;" parent="0ODxhAR9AB6k-3VPqA4q-32" vertex="1" connectable="0">
                    <mxGeometry x="-0.2917" y="-1" relative="1" as="geometry">
                        <mxPoint as="offset"/>
                    </mxGeometry>
                </mxCell>
                <mxCell id="0ODxhAR9AB6k-3VPqA4q-36" value="" style="edgeStyle=orthogonalEdgeStyle;rounded=0;orthogonalLoop=1;jettySize=auto;html=1;fontSize=9;" parent="1" source="0ODxhAR9AB6k-3VPqA4q-29" target="0ODxhAR9AB6k-3VPqA4q-35" edge="1">
                    <mxGeometry relative="1" as="geometry">
                        <Array as="points">
                            <mxPoint x="414" y="760"/>
                            <mxPoint x="414" y="760"/>
                        </Array>
                    </mxGeometry>
                </mxCell>
                <mxCell id="0ODxhAR9AB6k-3VPqA4q-43" value="FALSE" style="edgeLabel;html=1;align=center;verticalAlign=middle;resizable=0;points=[];fontSize=11;" parent="0ODxhAR9AB6k-3VPqA4q-36" vertex="1" connectable="0">
                    <mxGeometry x="-0.2328" y="2" relative="1" as="geometry">
                        <mxPoint as="offset"/>
                    </mxGeometry>
                </mxCell>
                <mxCell id="0ODxhAR9AB6k-3VPqA4q-29" value="&lt;font style=&quot;font-size: 10px&quot;&gt;수거자가 방문신청을 취소하였는가?&lt;br&gt;BIDDING.CANCEL_VISIT = TRUE&lt;/font&gt;" style="rhombus;whiteSpace=wrap;html=1;" parent="1" vertex="1">
                    <mxGeometry x="300" y="610" width="228" height="110" as="geometry"/>
                </mxCell>
                <mxCell id="0ODxhAR9AB6k-3VPqA4q-38" value="" style="edgeStyle=orthogonalEdgeStyle;rounded=0;orthogonalLoop=1;jettySize=auto;html=1;fontSize=9;" parent="1" source="0ODxhAR9AB6k-3VPqA4q-31" target="0ODxhAR9AB6k-3VPqA4q-37" edge="1">
                    <mxGeometry relative="1" as="geometry"/>
                </mxCell>
                <mxCell id="0ODxhAR9AB6k-3VPqA4q-39" value="FALSE" style="edgeLabel;html=1;align=center;verticalAlign=middle;resizable=0;points=[];fontSize=11;" parent="0ODxhAR9AB6k-3VPqA4q-38" vertex="1" connectable="0">
                    <mxGeometry x="-0.2136" relative="1" as="geometry">
                        <mxPoint as="offset"/>
                    </mxGeometry>
                </mxCell>
                <mxCell id="0ODxhAR9AB6k-3VPqA4q-41" value="" style="edgeStyle=orthogonalEdgeStyle;rounded=0;orthogonalLoop=1;jettySize=auto;html=1;fontSize=11;" parent="1" source="0ODxhAR9AB6k-3VPqA4q-31" target="0ODxhAR9AB6k-3VPqA4q-40" edge="1">
                    <mxGeometry relative="1" as="geometry"/>
                </mxCell>
                <mxCell id="0ODxhAR9AB6k-3VPqA4q-42" value="TRUE" style="edgeLabel;html=1;align=center;verticalAlign=middle;resizable=0;points=[];fontSize=11;" parent="0ODxhAR9AB6k-3VPqA4q-41" vertex="1" connectable="0">
                    <mxGeometry x="-0.2447" y="-2" relative="1" as="geometry">
                        <mxPoint as="offset"/>
                    </mxGeometry>
                </mxCell>
                <mxCell id="0ODxhAR9AB6k-3VPqA4q-31" value="&lt;span style=&quot;font-size: 10px&quot;&gt;방문마감일이 지났는가?&lt;/span&gt;&lt;br style=&quot;font-size: 10px&quot;&gt;&lt;span style=&quot;font-size: 10px&quot;&gt;ORDER.VISIT_END_AT&lt;/span&gt;&lt;br style=&quot;font-size: 10px&quot;&gt;&lt;span style=&quot;font-size: 10px&quot;&gt;&amp;lt;= NOW()&lt;/span&gt;" style="rhombus;whiteSpace=wrap;html=1;" parent="1" vertex="1">
                    <mxGeometry x="608" y="610" width="228" height="110" as="geometry"/>
                </mxCell>
                <mxCell id="0ODxhAR9AB6k-3VPqA4q-45" value="" style="edgeStyle=orthogonalEdgeStyle;rounded=0;orthogonalLoop=1;jettySize=auto;html=1;fontSize=11;" parent="1" source="0ODxhAR9AB6k-3VPqA4q-35" target="0ODxhAR9AB6k-3VPqA4q-44" edge="1">
                    <mxGeometry relative="1" as="geometry"/>
                </mxCell>
                <mxCell id="0ODxhAR9AB6k-3VPqA4q-46" value="FALSE" style="edgeLabel;html=1;align=center;verticalAlign=middle;resizable=0;points=[];fontSize=11;" parent="0ODxhAR9AB6k-3VPqA4q-45" vertex="1" connectable="0">
                    <mxGeometry x="-0.2345" y="-1" relative="1" as="geometry">
                        <mxPoint x="-32" y="1" as="offset"/>
                    </mxGeometry>
                </mxCell>
                <mxCell id="0ODxhAR9AB6k-3VPqA4q-53" value="" style="edgeStyle=orthogonalEdgeStyle;rounded=0;orthogonalLoop=1;jettySize=auto;html=1;fontSize=11;" parent="1" source="0ODxhAR9AB6k-3VPqA4q-35" target="0ODxhAR9AB6k-3VPqA4q-52" edge="1">
                    <mxGeometry relative="1" as="geometry"/>
                </mxCell>
                <mxCell id="0ODxhAR9AB6k-3VPqA4q-54" value="TRUE" style="edgeLabel;html=1;align=center;verticalAlign=middle;resizable=0;points=[];fontSize=11;" parent="0ODxhAR9AB6k-3VPqA4q-53" vertex="1" connectable="0">
                    <mxGeometry x="-0.1724" y="2" relative="1" as="geometry">
                        <mxPoint as="offset"/>
                    </mxGeometry>
                </mxCell>
                <mxCell id="0ODxhAR9AB6k-3VPqA4q-35" value="&lt;font style=&quot;font-size: 10px&quot;&gt;배출자가 방문신청에 &lt;br&gt;응답하였는가?&lt;br&gt;BIDDING.RESPONSE_VISIT &lt;br&gt;IS NOT NULL&lt;/font&gt;" style="rhombus;whiteSpace=wrap;html=1;" parent="1" vertex="1">
                    <mxGeometry x="300" y="800" width="228" height="110" as="geometry"/>
                </mxCell>
                <mxCell id="0ODxhAR9AB6k-3VPqA4q-37" value="&lt;font style=&quot;font-size: 11px&quot;&gt;202&lt;br&gt;&lt;/font&gt;&lt;table style=&quot;font-size: 11px&quot;&gt;&lt;tbody&gt;&lt;tr&gt;&lt;td&gt;&lt;font style=&quot;font-size: 11px&quot;&gt;방문포기&lt;/font&gt;&lt;/td&gt;&lt;/tr&gt;&lt;/tbody&gt;&lt;/table&gt;" style="whiteSpace=wrap;html=1;" parent="1" vertex="1">
                    <mxGeometry x="970" y="635" width="120" height="60" as="geometry"/>
                </mxCell>
                <mxCell id="0ODxhAR9AB6k-3VPqA4q-40" value="&lt;font style=&quot;font-size: 11px&quot;&gt;241&lt;br&gt;&lt;/font&gt;&lt;table style=&quot;font-size: 11px&quot;&gt;&lt;tbody&gt;&lt;tr&gt;&lt;td&gt;방문포기종료&lt;/td&gt;&lt;/tr&gt;&lt;/tbody&gt;&lt;/table&gt;" style="whiteSpace=wrap;html=1;" parent="1" vertex="1">
                    <mxGeometry x="662" y="825" width="120" height="60" as="geometry"/>
                </mxCell>
                <mxCell id="0ODxhAR9AB6k-3VPqA4q-48" value="" style="edgeStyle=orthogonalEdgeStyle;rounded=0;orthogonalLoop=1;jettySize=auto;html=1;fontSize=11;" parent="1" source="0ODxhAR9AB6k-3VPqA4q-44" target="0ODxhAR9AB6k-3VPqA4q-47" edge="1">
                    <mxGeometry relative="1" as="geometry"/>
                </mxCell>
                <mxCell id="0ODxhAR9AB6k-3VPqA4q-49" value="FALSE" style="edgeLabel;html=1;align=center;verticalAlign=middle;resizable=0;points=[];fontSize=11;" parent="0ODxhAR9AB6k-3VPqA4q-48" vertex="1" connectable="0">
                    <mxGeometry x="0.2126" relative="1" as="geometry">
                        <mxPoint as="offset"/>
                    </mxGeometry>
                </mxCell>
                <mxCell id="0ODxhAR9AB6k-3VPqA4q-51" value="" style="edgeStyle=orthogonalEdgeStyle;rounded=0;orthogonalLoop=1;jettySize=auto;html=1;fontSize=11;" parent="1" source="0ODxhAR9AB6k-3VPqA4q-44" target="0ODxhAR9AB6k-3VPqA4q-50" edge="1">
                    <mxGeometry relative="1" as="geometry"/>
                </mxCell>
                <mxCell id="0ODxhAR9AB6k-3VPqA4q-44" value="&lt;span style=&quot;font-size: 10px&quot;&gt;방문마감일이 지났는가?&lt;/span&gt;&lt;br style=&quot;font-size: 10px&quot;&gt;&lt;span style=&quot;font-size: 10px&quot;&gt;ORDER.VISIT_END_AT&lt;/span&gt;&lt;br style=&quot;font-size: 10px&quot;&gt;&lt;span style=&quot;font-size: 10px&quot;&gt;&amp;lt;= NOW()&lt;/span&gt;" style="rhombus;whiteSpace=wrap;html=1;" parent="1" vertex="1">
                    <mxGeometry x="-316" y="800" width="228" height="110" as="geometry"/>
                </mxCell>
                <mxCell id="0ODxhAR9AB6k-3VPqA4q-47" value="&lt;font style=&quot;font-size: 11px&quot;&gt;222&lt;br&gt;&lt;/font&gt;&lt;table style=&quot;font-size: 11px&quot;&gt;&lt;tbody&gt;&lt;tr&gt;&lt;td&gt;방문수락대기중&lt;/td&gt;&lt;/tr&gt;&lt;/tbody&gt;&lt;/table&gt;" style="whiteSpace=wrap;html=1;" parent="1" vertex="1">
                    <mxGeometry x="-570" y="825" width="120" height="60" as="geometry"/>
                </mxCell>
                <mxCell id="0ODxhAR9AB6k-3VPqA4q-50" value="&lt;font style=&quot;font-size: 11px&quot;&gt;203&lt;br&gt;&lt;/font&gt;&lt;table style=&quot;font-size: 11px&quot;&gt;&lt;tbody&gt;&lt;tr&gt;&lt;td&gt;방문거절&lt;/td&gt;&lt;/tr&gt;&lt;/tbody&gt;&lt;/table&gt;" style="whiteSpace=wrap;html=1;" parent="1" vertex="1">
                    <mxGeometry x="-262" y="635" width="120" height="60" as="geometry"/>
                </mxCell>
                <mxCell id="0ODxhAR9AB6k-3VPqA4q-56" value="" style="edgeStyle=orthogonalEdgeStyle;rounded=0;orthogonalLoop=1;jettySize=auto;html=1;fontSize=11;" parent="1" source="0ODxhAR9AB6k-3VPqA4q-52" target="0ODxhAR9AB6k-3VPqA4q-55" edge="1">
                    <mxGeometry relative="1" as="geometry"/>
                </mxCell>
                <mxCell id="0ODxhAR9AB6k-3VPqA4q-57" value="FALSE" style="edgeLabel;html=1;align=center;verticalAlign=middle;resizable=0;points=[];fontSize=11;" parent="0ODxhAR9AB6k-3VPqA4q-56" vertex="1" connectable="0">
                    <mxGeometry x="-0.1621" y="1" relative="1" as="geometry">
                        <mxPoint x="16" y="-1" as="offset"/>
                    </mxGeometry>
                </mxCell>
                <mxCell id="0ODxhAR9AB6k-3VPqA4q-59" value="" style="edgeStyle=orthogonalEdgeStyle;rounded=0;orthogonalLoop=1;jettySize=auto;html=1;fontSize=11;" parent="1" source="0ODxhAR9AB6k-3VPqA4q-52" target="0ODxhAR9AB6k-3VPqA4q-58" edge="1">
                    <mxGeometry relative="1" as="geometry"/>
                </mxCell>
                <mxCell id="0ODxhAR9AB6k-3VPqA4q-60" value="TRUE" style="edgeLabel;html=1;align=center;verticalAlign=middle;resizable=0;points=[];fontSize=11;" parent="0ODxhAR9AB6k-3VPqA4q-59" vertex="1" connectable="0">
                    <mxGeometry x="-0.2672" y="-1" relative="1" as="geometry">
                        <mxPoint as="offset"/>
                    </mxGeometry>
                </mxCell>
                <mxCell id="0ODxhAR9AB6k-3VPqA4q-52" value="&lt;font style=&quot;font-size: 10px&quot;&gt;배출자가 방문신청을 &lt;br&gt;수락하였는가?&lt;br&gt;BIDDING.RESPONSE_VISIT &lt;br&gt;= TRUE&lt;/font&gt;" style="rhombus;whiteSpace=wrap;html=1;" parent="1" vertex="1">
                    <mxGeometry x="300" y="990" width="228" height="110" as="geometry"/>
                </mxCell>
                <mxCell id="0ODxhAR9AB6k-3VPqA4q-55" value="&lt;font style=&quot;font-size: 11px&quot;&gt;203&lt;br&gt;&lt;/font&gt;&lt;table style=&quot;font-size: 11px&quot;&gt;&lt;tbody&gt;&lt;tr&gt;&lt;td&gt;방문거절&lt;/td&gt;&lt;/tr&gt;&lt;/tbody&gt;&lt;/table&gt;" style="whiteSpace=wrap;html=1;" parent="1" vertex="1">
                    <mxGeometry x="46" y="1015" width="120" height="60" as="geometry"/>
                </mxCell>
                <mxCell id="0ODxhAR9AB6k-3VPqA4q-65" value="" style="edgeStyle=orthogonalEdgeStyle;rounded=0;orthogonalLoop=1;jettySize=auto;html=1;fontSize=11;" parent="1" source="0ODxhAR9AB6k-3VPqA4q-58" target="0ODxhAR9AB6k-3VPqA4q-64" edge="1">
                    <mxGeometry relative="1" as="geometry"/>
                </mxCell>
                <mxCell id="0ODxhAR9AB6k-3VPqA4q-66" value="FALSE" style="edgeLabel;html=1;align=center;verticalAlign=middle;resizable=0;points=[];fontSize=11;" parent="0ODxhAR9AB6k-3VPqA4q-65" vertex="1" connectable="0">
                    <mxGeometry x="-0.2692" y="-2" relative="1" as="geometry">
                        <mxPoint as="offset"/>
                    </mxGeometry>
                </mxCell>
                <mxCell id="0ODxhAR9AB6k-3VPqA4q-68" value="" style="edgeStyle=orthogonalEdgeStyle;rounded=0;orthogonalLoop=1;jettySize=auto;html=1;fontSize=11;" parent="1" source="0ODxhAR9AB6k-3VPqA4q-58" target="0ODxhAR9AB6k-3VPqA4q-67" edge="1">
                    <mxGeometry relative="1" as="geometry"/>
                </mxCell>
                <mxCell id="0ODxhAR9AB6k-3VPqA4q-69" value="TRUE" style="edgeLabel;html=1;align=center;verticalAlign=middle;resizable=0;points=[];fontSize=11;" parent="0ODxhAR9AB6k-3VPqA4q-68" vertex="1" connectable="0">
                    <mxGeometry x="-0.2586" relative="1" as="geometry">
                        <mxPoint as="offset"/>
                    </mxGeometry>
                </mxCell>
                <mxCell id="0ODxhAR9AB6k-3VPqA4q-58" value="&lt;span style=&quot;font-size: 10px&quot;&gt;방문마감일이 지났는가?&lt;/span&gt;&lt;br style=&quot;font-size: 10px&quot;&gt;&lt;span style=&quot;font-size: 10px&quot;&gt;ORDER.VISIT_END_AT&lt;/span&gt;&lt;br style=&quot;font-size: 10px&quot;&gt;&lt;span style=&quot;font-size: 10px&quot;&gt;&amp;lt;= NOW()&lt;/span&gt;" style="rhombus;whiteSpace=wrap;html=1;" parent="1" vertex="1">
                    <mxGeometry x="300" y="1180" width="228" height="110" as="geometry"/>
                </mxCell>
                <mxCell id="0ODxhAR9AB6k-3VPqA4q-64" value="&lt;font style=&quot;font-size: 11px&quot;&gt;201&lt;br&gt;&lt;/font&gt;&lt;table style=&quot;font-size: 11px&quot;&gt;&lt;tbody&gt;&lt;tr&gt;&lt;td&gt;방문중&lt;/td&gt;&lt;/tr&gt;&lt;/tbody&gt;&lt;/table&gt;" style="whiteSpace=wrap;html=1;" parent="1" vertex="1">
                    <mxGeometry x="662" y="1205" width="120" height="60" as="geometry"/>
                </mxCell>
                <mxCell id="0ODxhAR9AB6k-3VPqA4q-71" value="" style="edgeStyle=orthogonalEdgeStyle;rounded=0;orthogonalLoop=1;jettySize=auto;html=1;fontSize=11;" parent="1" source="0ODxhAR9AB6k-3VPqA4q-67" target="0ODxhAR9AB6k-3VPqA4q-70" edge="1">
                    <mxGeometry relative="1" as="geometry"/>
                </mxCell>
                <mxCell id="0ODxhAR9AB6k-3VPqA4q-72" value="FALSE" style="edgeLabel;html=1;align=center;verticalAlign=middle;resizable=0;points=[];fontSize=11;" parent="0ODxhAR9AB6k-3VPqA4q-71" vertex="1" connectable="0">
                    <mxGeometry x="0.231" relative="1" as="geometry">
                        <mxPoint x="9" as="offset"/>
                    </mxGeometry>
                </mxCell>
                <mxCell id="0ODxhAR9AB6k-3VPqA4q-86" value="" style="edgeStyle=orthogonalEdgeStyle;rounded=0;orthogonalLoop=1;jettySize=auto;html=1;fontSize=11;" parent="1" source="0ODxhAR9AB6k-3VPqA4q-67" target="0ODxhAR9AB6k-3VPqA4q-85" edge="1">
                    <mxGeometry relative="1" as="geometry"/>
                </mxCell>
                <mxCell id="0ODxhAR9AB6k-3VPqA4q-90" value="TRUE" style="edgeLabel;html=1;align=center;verticalAlign=middle;resizable=0;points=[];fontSize=11;" parent="0ODxhAR9AB6k-3VPqA4q-86" vertex="1" connectable="0">
                    <mxGeometry x="-0.1983" y="1" relative="1" as="geometry">
                        <mxPoint as="offset"/>
                    </mxGeometry>
                </mxCell>
                <mxCell id="0ODxhAR9AB6k-3VPqA4q-67" value="&lt;span style=&quot;font-size: 10px&quot;&gt;수거자가 투찰을 하였는가?&lt;/span&gt;&lt;br style=&quot;font-size: 10px&quot;&gt;&lt;span style=&quot;font-size: 10px&quot;&gt;BIDDING.DATE_OF_BIDDING&lt;br&gt;IS NOT NULL&lt;/span&gt;" style="rhombus;whiteSpace=wrap;html=1;" parent="1" vertex="1">
                    <mxGeometry x="300" y="1370" width="228" height="110" as="geometry"/>
                </mxCell>
                <mxCell id="0ODxhAR9AB6k-3VPqA4q-74" value="" style="edgeStyle=orthogonalEdgeStyle;rounded=0;orthogonalLoop=1;jettySize=auto;html=1;fontSize=11;" parent="1" source="0ODxhAR9AB6k-3VPqA4q-70" target="0ODxhAR9AB6k-3VPqA4q-73" edge="1">
                    <mxGeometry relative="1" as="geometry"/>
                </mxCell>
                <mxCell id="0ODxhAR9AB6k-3VPqA4q-75" value="TRUE" style="edgeLabel;html=1;align=center;verticalAlign=middle;resizable=0;points=[];fontSize=11;" parent="0ODxhAR9AB6k-3VPqA4q-74" vertex="1" connectable="0">
                    <mxGeometry x="-0.2906" y="-1" relative="1" as="geometry">
                        <mxPoint as="offset"/>
                    </mxGeometry>
                </mxCell>
                <mxCell id="0ODxhAR9AB6k-3VPqA4q-77" value="" style="edgeStyle=orthogonalEdgeStyle;rounded=0;orthogonalLoop=1;jettySize=auto;html=1;fontSize=11;" parent="1" source="0ODxhAR9AB6k-3VPqA4q-70" target="0ODxhAR9AB6k-3VPqA4q-76" edge="1">
                    <mxGeometry relative="1" as="geometry"/>
                </mxCell>
                <mxCell id="0ODxhAR9AB6k-3VPqA4q-78" value="FALSE" style="edgeLabel;html=1;align=center;verticalAlign=middle;resizable=0;points=[];fontSize=11;" parent="0ODxhAR9AB6k-3VPqA4q-77" vertex="1" connectable="0">
                    <mxGeometry x="-0.2103" y="1" relative="1" as="geometry">
                        <mxPoint as="offset"/>
                    </mxGeometry>
                </mxCell>
                <mxCell id="0ODxhAR9AB6k-3VPqA4q-70" value="&lt;span style=&quot;font-size: 10px&quot;&gt;입찰기한이 지났는가?&lt;/span&gt;&lt;br style=&quot;font-size: 10px&quot;&gt;&lt;span style=&quot;font-size: 10px&quot;&gt;ORDER.BIDDING_END_AT&lt;br&gt;&amp;lt;= NOW()&lt;/span&gt;" style="rhombus;whiteSpace=wrap;html=1;" parent="1" vertex="1">
                    <mxGeometry x="-8" y="1370" width="228" height="110" as="geometry"/>
                </mxCell>
                <mxCell id="0ODxhAR9AB6k-3VPqA4q-73" value="&lt;font style=&quot;font-size: 11px&quot;&gt;238&lt;br&gt;&lt;/font&gt;&lt;table style=&quot;font-size: 11px&quot;&gt;&lt;tbody&gt;&lt;tr&gt;&lt;td&gt;미입찰종료&lt;/td&gt;&lt;/tr&gt;&lt;/tbody&gt;&lt;/table&gt;" style="whiteSpace=wrap;html=1;" parent="1" vertex="1">
                    <mxGeometry x="46" y="1205" width="120" height="60" as="geometry"/>
                </mxCell>
                <mxCell id="0ODxhAR9AB6k-3VPqA4q-80" value="" style="edgeStyle=orthogonalEdgeStyle;rounded=0;orthogonalLoop=1;jettySize=auto;html=1;fontSize=11;" parent="1" source="0ODxhAR9AB6k-3VPqA4q-76" target="0ODxhAR9AB6k-3VPqA4q-79" edge="1">
                    <mxGeometry relative="1" as="geometry"/>
                </mxCell>
                <mxCell id="0ODxhAR9AB6k-3VPqA4q-81" value="TRUE" style="edgeLabel;html=1;align=center;verticalAlign=middle;resizable=0;points=[];fontSize=11;" parent="0ODxhAR9AB6k-3VPqA4q-80" vertex="1" connectable="0">
                    <mxGeometry x="-0.2775" y="1" relative="1" as="geometry">
                        <mxPoint as="offset"/>
                    </mxGeometry>
                </mxCell>
                <mxCell id="0ODxhAR9AB6k-3VPqA4q-83" value="" style="edgeStyle=orthogonalEdgeStyle;rounded=0;orthogonalLoop=1;jettySize=auto;html=1;fontSize=11;" parent="1" source="0ODxhAR9AB6k-3VPqA4q-76" target="0ODxhAR9AB6k-3VPqA4q-82" edge="1">
                    <mxGeometry relative="1" as="geometry"/>
                </mxCell>
                <mxCell id="0ODxhAR9AB6k-3VPqA4q-84" value="FALSE" style="edgeLabel;html=1;align=center;verticalAlign=middle;resizable=0;points=[];fontSize=11;" parent="0ODxhAR9AB6k-3VPqA4q-83" vertex="1" connectable="0">
                    <mxGeometry x="-0.2156" y="-1" relative="1" as="geometry">
                        <mxPoint as="offset"/>
                    </mxGeometry>
                </mxCell>
                <mxCell id="0ODxhAR9AB6k-3VPqA4q-76" value="&lt;span style=&quot;font-size: 10px&quot;&gt;수거자가 입찰권한을&lt;br&gt;포기하였는가?&lt;/span&gt;&lt;br style=&quot;font-size: 10px&quot;&gt;&lt;span style=&quot;font-size: 10px&quot;&gt;BIDDING.GIVEUP_BIDDING&lt;br&gt;= TRUE&lt;/span&gt;" style="rhombus;whiteSpace=wrap;html=1;" parent="1" vertex="1">
                    <mxGeometry x="-316" y="1370" width="228" height="110" as="geometry"/>
                </mxCell>
                <mxCell id="0ODxhAR9AB6k-3VPqA4q-79" value="&lt;font style=&quot;font-size: 11px&quot;&gt;244&lt;br&gt;&lt;/font&gt;&lt;table style=&quot;font-size: 11px&quot;&gt;&lt;tbody&gt;&lt;tr&gt;&lt;td&gt;입찰포기&lt;/td&gt;&lt;/tr&gt;&lt;/tbody&gt;&lt;/table&gt;" style="whiteSpace=wrap;html=1;" parent="1" vertex="1">
                    <mxGeometry x="-262" y="1205" width="120" height="60" as="geometry"/>
                </mxCell>
                <mxCell id="0ODxhAR9AB6k-3VPqA4q-82" value="&lt;font style=&quot;font-size: 11px&quot;&gt;224&lt;br&gt;&lt;/font&gt;&lt;table style=&quot;font-size: 11px&quot;&gt;&lt;tbody&gt;&lt;tr&gt;&lt;td&gt;입찰준비중&lt;/td&gt;&lt;/tr&gt;&lt;/tbody&gt;&lt;/table&gt;" style="whiteSpace=wrap;html=1;" parent="1" vertex="1">
                    <mxGeometry x="-570" y="1395" width="120" height="60" as="geometry"/>
                </mxCell>
                <mxCell id="0ODxhAR9AB6k-3VPqA4q-88" value="" style="edgeStyle=orthogonalEdgeStyle;rounded=0;orthogonalLoop=1;jettySize=auto;html=1;fontSize=11;" parent="1" source="0ODxhAR9AB6k-3VPqA4q-85" target="0ODxhAR9AB6k-3VPqA4q-87" edge="1">
                    <mxGeometry relative="1" as="geometry"/>
                </mxCell>
                <mxCell id="0ODxhAR9AB6k-3VPqA4q-89" value="TRUE" style="edgeLabel;html=1;align=center;verticalAlign=middle;resizable=0;points=[];fontSize=11;" parent="0ODxhAR9AB6k-3VPqA4q-88" vertex="1" connectable="0">
                    <mxGeometry x="-0.1518" relative="1" as="geometry">
                        <mxPoint as="offset"/>
                    </mxGeometry>
                </mxCell>
                <mxCell id="0ODxhAR9AB6k-3VPqA4q-92" value="" style="edgeStyle=orthogonalEdgeStyle;rounded=0;orthogonalLoop=1;jettySize=auto;html=1;fontSize=11;" parent="1" source="0ODxhAR9AB6k-3VPqA4q-85" target="0ODxhAR9AB6k-3VPqA4q-91" edge="1">
                    <mxGeometry relative="1" as="geometry"/>
                </mxCell>
                <mxCell id="0ODxhAR9AB6k-3VPqA4q-96" value="FALSE" style="edgeLabel;html=1;align=center;verticalAlign=middle;resizable=0;points=[];fontSize=11;" parent="0ODxhAR9AB6k-3VPqA4q-92" vertex="1" connectable="0">
                    <mxGeometry x="-0.2241" y="2" relative="1" as="geometry">
                        <mxPoint as="offset"/>
                    </mxGeometry>
                </mxCell>
                <mxCell id="0ODxhAR9AB6k-3VPqA4q-85" value="&lt;span style=&quot;font-size: 10px&quot;&gt;수거자가 입찰권한을&lt;br&gt;포기하였는가?&lt;/span&gt;&lt;br style=&quot;font-size: 10px&quot;&gt;&lt;span style=&quot;font-size: 10px&quot;&gt;BIDDING.GIVEUP_BIDDING&lt;br&gt;= TRUE&lt;/span&gt;" style="rhombus;whiteSpace=wrap;html=1;" parent="1" vertex="1">
                    <mxGeometry x="300" y="1560" width="228" height="110" as="geometry"/>
                </mxCell>
                <mxCell id="0ODxhAR9AB6k-3VPqA4q-87" value="&lt;font style=&quot;font-size: 11px&quot;&gt;244&lt;br&gt;&lt;/font&gt;&lt;table style=&quot;font-size: 11px&quot;&gt;&lt;tbody&gt;&lt;tr&gt;&lt;td&gt;입찰포기&lt;/td&gt;&lt;/tr&gt;&lt;/tbody&gt;&lt;/table&gt;" style="whiteSpace=wrap;html=1;" parent="1" vertex="1">
                    <mxGeometry x="46" y="1585" width="120" height="60" as="geometry"/>
                </mxCell>
                <mxCell id="0ODxhAR9AB6k-3VPqA4q-94" value="" style="edgeStyle=orthogonalEdgeStyle;rounded=0;orthogonalLoop=1;jettySize=auto;html=1;fontSize=11;" parent="1" source="0ODxhAR9AB6k-3VPqA4q-91" target="0ODxhAR9AB6k-3VPqA4q-93" edge="1">
                    <mxGeometry relative="1" as="geometry"/>
                </mxCell>
                <mxCell id="0ODxhAR9AB6k-3VPqA4q-95" value="TRUE" style="edgeLabel;html=1;align=center;verticalAlign=middle;resizable=0;points=[];fontSize=11;" parent="0ODxhAR9AB6k-3VPqA4q-94" vertex="1" connectable="0">
                    <mxGeometry x="-0.1004" y="-1" relative="1" as="geometry">
                        <mxPoint as="offset"/>
                    </mxGeometry>
                </mxCell>
                <mxCell id="0ODxhAR9AB6k-3VPqA4q-98" value="" style="edgeStyle=orthogonalEdgeStyle;rounded=0;orthogonalLoop=1;jettySize=auto;html=1;fontSize=11;" parent="1" source="0ODxhAR9AB6k-3VPqA4q-91" target="0ODxhAR9AB6k-3VPqA4q-97" edge="1">
                    <mxGeometry relative="1" as="geometry"/>
                </mxCell>
                <mxCell id="0ODxhAR9AB6k-3VPqA4q-108" value="FALSE" style="edgeLabel;html=1;align=center;verticalAlign=middle;resizable=0;points=[];fontSize=11;" parent="0ODxhAR9AB6k-3VPqA4q-98" vertex="1" connectable="0">
                    <mxGeometry x="-0.2672" y="2" relative="1" as="geometry">
                        <mxPoint as="offset"/>
                    </mxGeometry>
                </mxCell>
                <mxCell id="0ODxhAR9AB6k-3VPqA4q-91" value="&lt;span style=&quot;font-size: 10px&quot;&gt;수거자가 입찰을&lt;br&gt;취소하였는가?&lt;/span&gt;&lt;br style=&quot;font-size: 10px&quot;&gt;&lt;span style=&quot;font-size: 10px&quot;&gt;BIDDING.CANCEL_BIDDING&lt;br&gt;= TRUE&lt;/span&gt;" style="rhombus;whiteSpace=wrap;html=1;" parent="1" vertex="1">
                    <mxGeometry x="300" y="1750" width="228" height="110" as="geometry"/>
                </mxCell>
                <mxCell id="0ODxhAR9AB6k-3VPqA4q-93" value="&lt;font style=&quot;font-size: 11px&quot;&gt;207&lt;br&gt;&lt;/font&gt;&lt;table style=&quot;font-size: 11px&quot;&gt;&lt;tbody&gt;&lt;tr&gt;&lt;td&gt;입찰포기&lt;/td&gt;&lt;/tr&gt;&lt;/tbody&gt;&lt;/table&gt;" style="whiteSpace=wrap;html=1;" parent="1" vertex="1">
                    <mxGeometry x="46" y="1775" width="120" height="60" as="geometry"/>
                </mxCell>
                <mxCell id="0ODxhAR9AB6k-3VPqA4q-100" value="" style="edgeStyle=orthogonalEdgeStyle;rounded=0;orthogonalLoop=1;jettySize=auto;html=1;fontSize=11;" parent="1" source="0ODxhAR9AB6k-3VPqA4q-97" target="0ODxhAR9AB6k-3VPqA4q-99" edge="1">
                    <mxGeometry relative="1" as="geometry"/>
                </mxCell>
                <mxCell id="0ODxhAR9AB6k-3VPqA4q-101" value="TRUE" style="edgeLabel;html=1;align=center;verticalAlign=middle;resizable=0;points=[];fontSize=11;" parent="0ODxhAR9AB6k-3VPqA4q-100" vertex="1" connectable="0">
                    <mxGeometry x="-0.2342" y="1" relative="1" as="geometry">
                        <mxPoint as="offset"/>
                    </mxGeometry>
                </mxCell>
                <mxCell id="0ODxhAR9AB6k-3VPqA4q-103" value="" style="edgeStyle=orthogonalEdgeStyle;rounded=0;orthogonalLoop=1;jettySize=auto;html=1;fontSize=11;" parent="1" source="0ODxhAR9AB6k-3VPqA4q-97" target="0ODxhAR9AB6k-3VPqA4q-102" edge="1">
                    <mxGeometry relative="1" as="geometry"/>
                </mxCell>
                <mxCell id="0ODxhAR9AB6k-3VPqA4q-104" value="FALSE" style="edgeLabel;html=1;align=center;verticalAlign=middle;resizable=0;points=[];fontSize=11;" parent="0ODxhAR9AB6k-3VPqA4q-103" vertex="1" connectable="0">
                    <mxGeometry x="-0.1897" relative="1" as="geometry">
                        <mxPoint as="offset"/>
                    </mxGeometry>
                </mxCell>
                <mxCell id="0ODxhAR9AB6k-3VPqA4q-97" value="&lt;span style=&quot;font-size: 10px&quot;&gt;배출자가 수거자의 &lt;br&gt;입찰을 거절하였는가?&lt;/span&gt;&lt;br style=&quot;font-size: 10px&quot;&gt;&lt;span style=&quot;font-size: 10px&quot;&gt;BIDDING.REJECT_BIDDING&lt;br&gt;= TRUE&lt;/span&gt;" style="rhombus;whiteSpace=wrap;html=1;" parent="1" vertex="1">
                    <mxGeometry x="300" y="1940" width="228" height="110" as="geometry"/>
                </mxCell>
                <mxCell id="0ODxhAR9AB6k-3VPqA4q-99" value="&lt;font style=&quot;font-size: 11px&quot;&gt;231&lt;br&gt;&lt;/font&gt;&lt;table style=&quot;font-size: 11px&quot;&gt;&lt;tbody&gt;&lt;tr&gt;&lt;td&gt;입찰거절&lt;/td&gt;&lt;/tr&gt;&lt;/tbody&gt;&lt;/table&gt;" style="whiteSpace=wrap;html=1;" parent="1" vertex="1">
                    <mxGeometry x="46" y="1965" width="120" height="60" as="geometry"/>
                </mxCell>
                <mxCell id="0ODxhAR9AB6k-3VPqA4q-106" value="" style="edgeStyle=orthogonalEdgeStyle;rounded=0;orthogonalLoop=1;jettySize=auto;html=1;fontSize=11;" parent="1" source="0ODxhAR9AB6k-3VPqA4q-102" target="0ODxhAR9AB6k-3VPqA4q-105" edge="1">
                    <mxGeometry relative="1" as="geometry"/>
                </mxCell>
                <mxCell id="0ODxhAR9AB6k-3VPqA4q-107" value="FALSE" style="edgeLabel;html=1;align=center;verticalAlign=middle;resizable=0;points=[];fontSize=11;" parent="0ODxhAR9AB6k-3VPqA4q-106" vertex="1" connectable="0">
                    <mxGeometry x="-0.2445" y="2" relative="1" as="geometry">
                        <mxPoint as="offset"/>
                    </mxGeometry>
                </mxCell>
                <mxCell id="0ODxhAR9AB6k-3VPqA4q-110" value="" style="edgeStyle=orthogonalEdgeStyle;rounded=0;orthogonalLoop=1;jettySize=auto;html=1;fontSize=11;" parent="1" source="0ODxhAR9AB6k-3VPqA4q-102" target="0ODxhAR9AB6k-3VPqA4q-109" edge="1">
                    <mxGeometry relative="1" as="geometry"/>
                </mxCell>
                <mxCell id="0ODxhAR9AB6k-3VPqA4q-114" value="TRUE" style="edgeLabel;html=1;align=center;verticalAlign=middle;resizable=0;points=[];fontSize=11;" parent="0ODxhAR9AB6k-3VPqA4q-110" vertex="1" connectable="0">
                    <mxGeometry x="-0.2096" y="-1" relative="1" as="geometry">
                        <mxPoint as="offset"/>
                    </mxGeometry>
                </mxCell>
                <mxCell id="0ODxhAR9AB6k-3VPqA4q-102" value="&lt;span style=&quot;font-size: 10px&quot;&gt;입찰마감일이 지났는가?&lt;/span&gt;&lt;br style=&quot;font-size: 10px&quot;&gt;&lt;span style=&quot;font-size: 10px&quot;&gt;ORDER.BIDDING_END_AT&lt;br&gt;&amp;lt;= NOW()&lt;/span&gt;" style="rhombus;whiteSpace=wrap;html=1;" parent="1" vertex="1">
                    <mxGeometry x="300" y="2130" width="228" height="110" as="geometry"/>
                </mxCell>
                <mxCell id="0ODxhAR9AB6k-3VPqA4q-105" value="&lt;font style=&quot;font-size: 11px&quot;&gt;206&lt;br&gt;&lt;/font&gt;&lt;table style=&quot;font-size: 11px&quot;&gt;&lt;tbody&gt;&lt;tr&gt;&lt;td&gt;입찰중&lt;/td&gt;&lt;/tr&gt;&lt;/tbody&gt;&lt;/table&gt;" style="whiteSpace=wrap;html=1;" parent="1" vertex="1">
                    <mxGeometry x="46" y="2155" width="120" height="60" as="geometry"/>
                </mxCell>
                <mxCell id="0ODxhAR9AB6k-3VPqA4q-112" value="" style="edgeStyle=orthogonalEdgeStyle;rounded=0;orthogonalLoop=1;jettySize=auto;html=1;fontSize=11;" parent="1" source="0ODxhAR9AB6k-3VPqA4q-109" target="0ODxhAR9AB6k-3VPqA4q-111" edge="1">
                    <mxGeometry relative="1" as="geometry"/>
                </mxCell>
                <mxCell id="0ODxhAR9AB6k-3VPqA4q-113" value="FALSE" style="edgeLabel;html=1;align=center;verticalAlign=middle;resizable=0;points=[];fontSize=11;" parent="0ODxhAR9AB6k-3VPqA4q-112" vertex="1" connectable="0">
                    <mxGeometry x="-0.1731" y="1" relative="1" as="geometry">
                        <mxPoint as="offset"/>
                    </mxGeometry>
                </mxCell>
                <mxCell id="0ODxhAR9AB6k-3VPqA4q-116" value="" style="edgeStyle=orthogonalEdgeStyle;rounded=0;orthogonalLoop=1;jettySize=auto;html=1;fontSize=11;" parent="1" source="0ODxhAR9AB6k-3VPqA4q-109" target="0ODxhAR9AB6k-3VPqA4q-115" edge="1">
                    <mxGeometry relative="1" as="geometry"/>
                </mxCell>
                <mxCell id="0ODxhAR9AB6k-3VPqA4q-117" value="TRUE" style="edgeLabel;html=1;align=center;verticalAlign=middle;resizable=0;points=[];fontSize=11;" parent="0ODxhAR9AB6k-3VPqA4q-116" vertex="1" connectable="0">
                    <mxGeometry x="-0.2096" y="1" relative="1" as="geometry">
                        <mxPoint as="offset"/>
                    </mxGeometry>
                </mxCell>
                <mxCell id="0ODxhAR9AB6k-3VPqA4q-109" value="&lt;span style=&quot;font-size: 10px&quot;&gt;수거자가 1순위자인가?&lt;/span&gt;&lt;br style=&quot;font-size: 10px&quot;&gt;&lt;span style=&quot;font-size: 10px&quot;&gt;ORDER.FIRST_PLACE&lt;br&gt;= BIDDING.ID&lt;/span&gt;" style="rhombus;whiteSpace=wrap;html=1;" parent="1" vertex="1">
                    <mxGeometry x="300" y="2320" width="228" height="110" as="geometry"/>
                </mxCell>
                <mxCell id="0ODxhAR9AB6k-3VPqA4q-179" value="" style="edgeStyle=orthogonalEdgeStyle;rounded=0;orthogonalLoop=1;jettySize=auto;html=1;fontSize=11;" parent="1" source="0ODxhAR9AB6k-3VPqA4q-111" target="0ODxhAR9AB6k-3VPqA4q-178" edge="1">
                    <mxGeometry relative="1" as="geometry"/>
                </mxCell>
                <mxCell id="0ODxhAR9AB6k-3VPqA4q-180" value="FALSE" style="edgeLabel;html=1;align=center;verticalAlign=middle;resizable=0;points=[];fontSize=11;" parent="0ODxhAR9AB6k-3VPqA4q-179" vertex="1" connectable="0">
                    <mxGeometry x="-0.324" relative="1" as="geometry">
                        <mxPoint as="offset"/>
                    </mxGeometry>
                </mxCell>
                <mxCell id="0ODxhAR9AB6k-3VPqA4q-182" value="" style="edgeStyle=orthogonalEdgeStyle;rounded=0;orthogonalLoop=1;jettySize=auto;html=1;fontSize=11;" parent="1" source="0ODxhAR9AB6k-3VPqA4q-111" target="0ODxhAR9AB6k-3VPqA4q-181" edge="1">
                    <mxGeometry relative="1" as="geometry"/>
                </mxCell>
                <mxCell id="22" value="TRUE" style="edgeLabel;html=1;align=center;verticalAlign=middle;resizable=0;points=[];" vertex="1" connectable="0" parent="0ODxhAR9AB6k-3VPqA4q-182">
                    <mxGeometry x="-0.3485" relative="1" as="geometry">
                        <mxPoint as="offset"/>
                    </mxGeometry>
                </mxCell>
                <mxCell id="0ODxhAR9AB6k-3VPqA4q-111" value="&lt;span style=&quot;font-size: 10px&quot;&gt;수거자가 2순위자인가?&lt;/span&gt;&lt;br style=&quot;font-size: 10px&quot;&gt;&lt;span style=&quot;font-size: 10px&quot;&gt;ORDER.SECOND_PLACE&lt;br&gt;= BIDDING.ID&lt;/span&gt;" style="rhombus;whiteSpace=wrap;html=1;" parent="1" vertex="1">
                    <mxGeometry x="608" y="2320" width="228" height="110" as="geometry"/>
                </mxCell>
                <mxCell id="0ODxhAR9AB6k-3VPqA4q-119" value="" style="edgeStyle=orthogonalEdgeStyle;rounded=0;orthogonalLoop=1;jettySize=auto;html=1;fontSize=11;entryX=1;entryY=0.5;entryDx=0;entryDy=0;" parent="1" source="0ODxhAR9AB6k-3VPqA4q-115" target="7" edge="1">
                    <mxGeometry relative="1" as="geometry"/>
                </mxCell>
                <mxCell id="0ODxhAR9AB6k-3VPqA4q-120" value="FALSE" style="edgeLabel;html=1;align=center;verticalAlign=middle;resizable=0;points=[];fontSize=11;" parent="0ODxhAR9AB6k-3VPqA4q-119" vertex="1" connectable="0">
                    <mxGeometry x="-0.1231" y="-1" relative="1" as="geometry">
                        <mxPoint as="offset"/>
                    </mxGeometry>
                </mxCell>
                <mxCell id="0ODxhAR9AB6k-3VPqA4q-122" value="" style="edgeStyle=orthogonalEdgeStyle;rounded=0;orthogonalLoop=1;jettySize=auto;html=1;fontSize=11;" parent="1" source="0ODxhAR9AB6k-3VPqA4q-115" target="0ODxhAR9AB6k-3VPqA4q-121" edge="1">
                    <mxGeometry relative="1" as="geometry"/>
                </mxCell>
                <mxCell id="0ODxhAR9AB6k-3VPqA4q-123" value="TRUE" style="edgeLabel;html=1;align=center;verticalAlign=middle;resizable=0;points=[];fontSize=11;" parent="0ODxhAR9AB6k-3VPqA4q-122" vertex="1" connectable="0">
                    <mxGeometry x="-0.1432" y="-2" relative="1" as="geometry">
                        <mxPoint as="offset"/>
                    </mxGeometry>
                </mxCell>
                <mxCell id="0ODxhAR9AB6k-3VPqA4q-115" value="&lt;span style=&quot;font-size: 10px&quot;&gt;배출자가 수거자를 &lt;br&gt;최종선정하였는가?&lt;/span&gt;&lt;br style=&quot;font-size: 10px&quot;&gt;&lt;span style=&quot;font-size: 10px&quot;&gt;ORDER.SELECTED&lt;br&gt;= BIDDING.ID&lt;/span&gt;" style="rhombus;whiteSpace=wrap;html=1;" parent="1" vertex="1">
                    <mxGeometry x="300" y="2510" width="228" height="110" as="geometry"/>
                </mxCell>
                <mxCell id="0ODxhAR9AB6k-3VPqA4q-152" value="" style="edgeStyle=orthogonalEdgeStyle;rounded=0;orthogonalLoop=1;jettySize=auto;html=1;fontSize=11;entryX=1;entryY=0.5;entryDx=0;entryDy=0;" parent="1" source="0ODxhAR9AB6k-3VPqA4q-118" target="0ODxhAR9AB6k-3VPqA4q-172" edge="1">
                    <mxGeometry relative="1" as="geometry">
                        <mxPoint x="-438.00000000000045" y="2565" as="targetPoint"/>
                    </mxGeometry>
                </mxCell>
                <mxCell id="0ODxhAR9AB6k-3VPqA4q-153" value="TRUE" style="edgeLabel;html=1;align=center;verticalAlign=middle;resizable=0;points=[];fontSize=11;" parent="0ODxhAR9AB6k-3VPqA4q-152" vertex="1" connectable="0">
                    <mxGeometry x="-0.2474" relative="1" as="geometry">
                        <mxPoint as="offset"/>
                    </mxGeometry>
                </mxCell>
                <mxCell id="0ODxhAR9AB6k-3VPqA4q-118" value="&lt;span style=&quot;font-size: 10px&quot;&gt;배출자가 1순위수거자를 &lt;br&gt;결정해야하는 DEADLINE을 지났는가?&lt;/span&gt;&lt;br style=&quot;font-size: 10px&quot;&gt;&lt;span style=&quot;font-size: 10px&quot;&gt;ORDER.MAX_SELECT_AT&lt;br&gt;&amp;lt;= NOW()&lt;br&gt;&lt;/span&gt;" style="rhombus;whiteSpace=wrap;html=1;" parent="1" vertex="1">
                    <mxGeometry x="-358" y="2510" width="228" height="110" as="geometry"/>
                </mxCell>
                <mxCell id="0ODxhAR9AB6k-3VPqA4q-125" value="" style="edgeStyle=orthogonalEdgeStyle;rounded=0;orthogonalLoop=1;jettySize=auto;html=1;fontSize=11;" parent="1" source="0ODxhAR9AB6k-3VPqA4q-121" target="0ODxhAR9AB6k-3VPqA4q-124" edge="1">
                    <mxGeometry relative="1" as="geometry"/>
                </mxCell>
                <mxCell id="0ODxhAR9AB6k-3VPqA4q-126" value="TRUE" style="edgeLabel;html=1;align=center;verticalAlign=middle;resizable=0;points=[];fontSize=11;" parent="0ODxhAR9AB6k-3VPqA4q-125" vertex="1" connectable="0">
                    <mxGeometry x="-0.3392" y="-2" relative="1" as="geometry">
                        <mxPoint as="offset"/>
                    </mxGeometry>
                </mxCell>
                <mxCell id="0ODxhAR9AB6k-3VPqA4q-128" value="" style="edgeStyle=orthogonalEdgeStyle;rounded=0;orthogonalLoop=1;jettySize=auto;html=1;fontSize=11;" parent="1" source="0ODxhAR9AB6k-3VPqA4q-121" target="0ODxhAR9AB6k-3VPqA4q-127" edge="1">
                    <mxGeometry relative="1" as="geometry"/>
                </mxCell>
                <mxCell id="0ODxhAR9AB6k-3VPqA4q-129" value="FALSE" style="edgeLabel;html=1;align=center;verticalAlign=middle;resizable=0;points=[];fontSize=11;" parent="0ODxhAR9AB6k-3VPqA4q-128" vertex="1" connectable="0">
                    <mxGeometry x="-0.2007" relative="1" as="geometry">
                        <mxPoint as="offset"/>
                    </mxGeometry>
                </mxCell>
                <mxCell id="0ODxhAR9AB6k-3VPqA4q-121" value="&lt;span style=&quot;font-size: 10px&quot;&gt;수거자가 배출자의 선정에&lt;br&gt;대하여 수락 또는 거절을 하였는가?&lt;/span&gt;&lt;br style=&quot;font-size: 10px&quot;&gt;&lt;span style=&quot;font-size: 10px&quot;&gt;BIDDING.MAKE_DECISION&lt;br&gt;IS NOT NULL&lt;/span&gt;" style="rhombus;whiteSpace=wrap;html=1;" parent="1" vertex="1">
                    <mxGeometry x="300" y="2700" width="228" height="110" as="geometry"/>
                </mxCell>
                <mxCell id="0ODxhAR9AB6k-3VPqA4q-137" value="" style="edgeStyle=orthogonalEdgeStyle;rounded=0;orthogonalLoop=1;jettySize=auto;html=1;fontSize=11;" parent="1" source="0ODxhAR9AB6k-3VPqA4q-124" target="0ODxhAR9AB6k-3VPqA4q-136" edge="1">
                    <mxGeometry relative="1" as="geometry"/>
                </mxCell>
                <mxCell id="0ODxhAR9AB6k-3VPqA4q-138" value="FALSE" style="edgeLabel;html=1;align=center;verticalAlign=middle;resizable=0;points=[];fontSize=11;" parent="0ODxhAR9AB6k-3VPqA4q-137" vertex="1" connectable="0">
                    <mxGeometry x="-0.2485" y="-1" relative="1" as="geometry">
                        <mxPoint as="offset"/>
                    </mxGeometry>
                </mxCell>
                <mxCell id="0ODxhAR9AB6k-3VPqA4q-140" value="" style="edgeStyle=orthogonalEdgeStyle;rounded=0;orthogonalLoop=1;jettySize=auto;html=1;fontSize=11;" parent="1" source="0ODxhAR9AB6k-3VPqA4q-124" target="0ODxhAR9AB6k-3VPqA4q-139" edge="1">
                    <mxGeometry relative="1" as="geometry"/>
                </mxCell>
                <mxCell id="0ODxhAR9AB6k-3VPqA4q-146" value="TRUE" style="edgeLabel;html=1;align=center;verticalAlign=middle;resizable=0;points=[];fontSize=11;" parent="0ODxhAR9AB6k-3VPqA4q-140" vertex="1" connectable="0">
                    <mxGeometry x="-0.3528" relative="1" as="geometry">
                        <mxPoint as="offset"/>
                    </mxGeometry>
                </mxCell>
                <mxCell id="0ODxhAR9AB6k-3VPqA4q-124" value="&lt;span style=&quot;font-size: 10px&quot;&gt;수거자가 배출자의&lt;br&gt;선정에 대하여&amp;nbsp;&lt;/span&gt;&lt;span style=&quot;font-size: 10px&quot;&gt;수락 하였는가?&lt;/span&gt;&lt;br style=&quot;font-size: 10px&quot;&gt;&lt;span style=&quot;font-size: 10px&quot;&gt;BIDDING.MAKE_DECISION&lt;br&gt;= TRUE&lt;/span&gt;" style="rhombus;whiteSpace=wrap;html=1;" parent="1" vertex="1">
                    <mxGeometry x="300" y="2890" width="228" height="110" as="geometry"/>
                </mxCell>
                <mxCell id="0ODxhAR9AB6k-3VPqA4q-131" value="" style="edgeStyle=orthogonalEdgeStyle;rounded=0;orthogonalLoop=1;jettySize=auto;html=1;fontSize=11;" parent="1" source="0ODxhAR9AB6k-3VPqA4q-127" target="0ODxhAR9AB6k-3VPqA4q-130" edge="1">
                    <mxGeometry relative="1" as="geometry"/>
                </mxCell>
                <mxCell id="0ODxhAR9AB6k-3VPqA4q-132" value="TRUE" style="edgeLabel;html=1;align=center;verticalAlign=middle;resizable=0;points=[];fontSize=11;" parent="0ODxhAR9AB6k-3VPqA4q-131" vertex="1" connectable="0">
                    <mxGeometry x="-0.1701" y="1" relative="1" as="geometry">
                        <mxPoint as="offset"/>
                    </mxGeometry>
                </mxCell>
                <mxCell id="0ODxhAR9AB6k-3VPqA4q-134" value="" style="edgeStyle=orthogonalEdgeStyle;rounded=0;orthogonalLoop=1;jettySize=auto;html=1;fontSize=11;" parent="1" source="0ODxhAR9AB6k-3VPqA4q-127" target="0ODxhAR9AB6k-3VPqA4q-133" edge="1">
                    <mxGeometry relative="1" as="geometry"/>
                </mxCell>
                <mxCell id="0ODxhAR9AB6k-3VPqA4q-135" value="FALSE" style="edgeLabel;html=1;align=center;verticalAlign=middle;resizable=0;points=[];fontSize=11;" parent="0ODxhAR9AB6k-3VPqA4q-134" vertex="1" connectable="0">
                    <mxGeometry x="-0.2307" y="-1" relative="1" as="geometry">
                        <mxPoint as="offset"/>
                    </mxGeometry>
                </mxCell>
                <mxCell id="0ODxhAR9AB6k-3VPqA4q-127" value="&lt;span style=&quot;font-size: 10px&quot;&gt;수거자가 배출자의 &lt;br&gt;선정에 대하여 수락 또는 거절을&lt;br&gt;해야하는 DEADLINE을 지났는가?&lt;/span&gt;&lt;br style=&quot;font-size: 10px&quot;&gt;&lt;span style=&quot;font-size: 10px&quot;&gt;BIDDING.MAX_DECISION_AT&lt;br&gt;&amp;lt;= NOW()&lt;/span&gt;" style="rhombus;whiteSpace=wrap;html=1;" parent="1" vertex="1">
                    <mxGeometry x="608" y="2700" width="228" height="110" as="geometry"/>
                </mxCell>
                <mxCell id="0ODxhAR9AB6k-3VPqA4q-130" value="&lt;font style=&quot;font-size: 11px&quot;&gt;239&lt;br&gt;&lt;/font&gt;&lt;table style=&quot;font-size: 11px&quot;&gt;&lt;tbody&gt;&lt;tr&gt;&lt;td&gt;낙찰포기&lt;/td&gt;&lt;/tr&gt;&lt;/tbody&gt;&lt;/table&gt;" style="whiteSpace=wrap;html=1;" parent="1" vertex="1">
                    <mxGeometry x="662" y="2535" width="120" height="60" as="geometry"/>
                </mxCell>
                <mxCell id="0ODxhAR9AB6k-3VPqA4q-133" value="&lt;font style=&quot;font-size: 11px&quot;&gt;236&lt;br&gt;&lt;/font&gt;&lt;table style=&quot;font-size: 11px&quot;&gt;&lt;tbody&gt;&lt;tr&gt;&lt;td&gt;낙찰결정중&lt;/td&gt;&lt;/tr&gt;&lt;/tbody&gt;&lt;/table&gt;" style="whiteSpace=wrap;html=1;" parent="1" vertex="1">
                    <mxGeometry x="970" y="2725" width="120" height="60" as="geometry"/>
                </mxCell>
                <mxCell id="0ODxhAR9AB6k-3VPqA4q-136" value="&lt;font style=&quot;font-size: 11px&quot;&gt;239&lt;br&gt;&lt;/font&gt;&lt;table style=&quot;font-size: 11px&quot;&gt;&lt;tbody&gt;&lt;tr&gt;&lt;td&gt;낙찰포기&lt;/td&gt;&lt;/tr&gt;&lt;/tbody&gt;&lt;/table&gt;" style="whiteSpace=wrap;html=1;" parent="1" vertex="1">
                    <mxGeometry x="662" y="2915" width="120" height="60" as="geometry"/>
                </mxCell>
                <mxCell id="0ODxhAR9AB6k-3VPqA4q-142" value="" style="edgeStyle=orthogonalEdgeStyle;rounded=0;orthogonalLoop=1;jettySize=auto;html=1;fontSize=11;" parent="1" source="0ODxhAR9AB6k-3VPqA4q-139" target="0ODxhAR9AB6k-3VPqA4q-141" edge="1">
                    <mxGeometry relative="1" as="geometry"/>
                </mxCell>
                <mxCell id="0ODxhAR9AB6k-3VPqA4q-143" value="FALSE" style="edgeLabel;html=1;align=center;verticalAlign=middle;resizable=0;points=[];fontSize=11;" parent="0ODxhAR9AB6k-3VPqA4q-142" vertex="1" connectable="0">
                    <mxGeometry x="-0.225" y="1" relative="1" as="geometry">
                        <mxPoint as="offset"/>
                    </mxGeometry>
                </mxCell>
                <mxCell id="0ODxhAR9AB6k-3VPqA4q-145" value="" style="edgeStyle=orthogonalEdgeStyle;rounded=0;orthogonalLoop=1;jettySize=auto;html=1;fontSize=11;" parent="1" source="0ODxhAR9AB6k-3VPqA4q-139" target="0ODxhAR9AB6k-3VPqA4q-144" edge="1">
                    <mxGeometry relative="1" as="geometry"/>
                </mxCell>
                <mxCell id="0ODxhAR9AB6k-3VPqA4q-147" value="TRUE" style="edgeLabel;html=1;align=center;verticalAlign=middle;resizable=0;points=[];fontSize=11;" parent="0ODxhAR9AB6k-3VPqA4q-145" vertex="1" connectable="0">
                    <mxGeometry x="-0.2571" y="-1" relative="1" as="geometry">
                        <mxPoint as="offset"/>
                    </mxGeometry>
                </mxCell>
                <mxCell id="0ODxhAR9AB6k-3VPqA4q-139" value="&lt;span style=&quot;font-size: 10px&quot;&gt;계약종료일이 지났는가?&lt;/span&gt;&lt;br style=&quot;font-size: 10px&quot;&gt;&lt;span style=&quot;font-size: 10px&quot;&gt;ORDER.CLOSE_AT&lt;br&gt;&lt;/span&gt;&amp;lt;= NOW()" style="rhombus;whiteSpace=wrap;html=1;" parent="1" vertex="1">
                    <mxGeometry x="300" y="3080" width="228" height="110" as="geometry"/>
                </mxCell>
                <mxCell id="0ODxhAR9AB6k-3VPqA4q-141" value="&lt;font style=&quot;font-size: 11px&quot;&gt;218&lt;br&gt;&lt;/font&gt;&lt;table style=&quot;font-size: 11px&quot;&gt;&lt;tbody&gt;&lt;tr&gt;&lt;td&gt;기존거래&lt;/td&gt;&lt;/tr&gt;&lt;/tbody&gt;&lt;/table&gt;" style="whiteSpace=wrap;html=1;" parent="1" vertex="1">
                    <mxGeometry x="662" y="3105" width="120" height="60" as="geometry"/>
                </mxCell>
                <mxCell id="0ODxhAR9AB6k-3VPqA4q-144" value="&lt;font style=&quot;font-size: 11px&quot;&gt;212&lt;br&gt;&lt;/font&gt;&lt;table style=&quot;font-size: 11px&quot;&gt;&lt;tbody&gt;&lt;tr&gt;&lt;td&gt;수거중&lt;/td&gt;&lt;/tr&gt;&lt;/tbody&gt;&lt;/table&gt;" style="whiteSpace=wrap;html=1;" parent="1" vertex="1">
                    <mxGeometry x="354" y="3295" width="120" height="60" as="geometry"/>
                </mxCell>
                <mxCell id="0ODxhAR9AB6k-3VPqA4q-172" value="&lt;font style=&quot;font-size: 11px&quot;&gt;239=&amp;gt;214&lt;br&gt;&lt;/font&gt;&lt;table style=&quot;font-size: 11px&quot;&gt;&lt;tbody&gt;&lt;tr&gt;&lt;td&gt;낙찰포기=&amp;gt;삭제&lt;/td&gt;&lt;/tr&gt;&lt;/tbody&gt;&lt;/table&gt;" style="whiteSpace=wrap;html=1;" parent="1" vertex="1">
                    <mxGeometry x="-560" y="2535" width="120" height="60" as="geometry"/>
                </mxCell>
                <mxCell id="0ODxhAR9AB6k-3VPqA4q-178" value="&lt;font style=&quot;font-size: 11px&quot;&gt;213&lt;br&gt;&lt;/font&gt;&lt;table style=&quot;font-size: 11px&quot;&gt;&lt;tbody&gt;&lt;tr&gt;&lt;td&gt;유찰&lt;/td&gt;&lt;/tr&gt;&lt;/tbody&gt;&lt;/table&gt;" style="whiteSpace=wrap;html=1;" parent="1" vertex="1">
                    <mxGeometry x="662" y="2155" width="120" height="60" as="geometry"/>
                </mxCell>
                <mxCell id="0ODxhAR9AB6k-3VPqA4q-184" value="" style="edgeStyle=orthogonalEdgeStyle;rounded=0;orthogonalLoop=1;jettySize=auto;html=1;fontSize=11;" parent="1" source="0ODxhAR9AB6k-3VPqA4q-181" target="0ODxhAR9AB6k-3VPqA4q-183" edge="1">
                    <mxGeometry relative="1" as="geometry"/>
                </mxCell>
                <mxCell id="0ODxhAR9AB6k-3VPqA4q-185" value="FALSE" style="edgeLabel;html=1;align=center;verticalAlign=middle;resizable=0;points=[];fontSize=11;" parent="0ODxhAR9AB6k-3VPqA4q-184" vertex="1" connectable="0">
                    <mxGeometry x="-0.2529" y="2" relative="1" as="geometry">
                        <mxPoint as="offset"/>
                    </mxGeometry>
                </mxCell>
                <mxCell id="0ODxhAR9AB6k-3VPqA4q-187" value="" style="edgeStyle=orthogonalEdgeStyle;rounded=0;orthogonalLoop=1;jettySize=auto;html=1;fontSize=11;" parent="1" source="0ODxhAR9AB6k-3VPqA4q-181" target="0ODxhAR9AB6k-3VPqA4q-186" edge="1">
                    <mxGeometry relative="1" as="geometry"/>
                </mxCell>
                <mxCell id="0ODxhAR9AB6k-3VPqA4q-188" value="TRUE" style="edgeLabel;html=1;align=center;verticalAlign=middle;resizable=0;points=[];fontSize=11;" parent="0ODxhAR9AB6k-3VPqA4q-187" vertex="1" connectable="0">
                    <mxGeometry x="-0.175" y="1" relative="1" as="geometry">
                        <mxPoint as="offset"/>
                    </mxGeometry>
                </mxCell>
                <mxCell id="0ODxhAR9AB6k-3VPqA4q-181" value="&lt;span style=&quot;font-size: 10px&quot;&gt;배출자가 1순위수거자를&lt;br&gt;최종선정하였는가?&lt;br&gt;&lt;/span&gt;&lt;font style=&quot;font-size: 10px&quot;&gt;(수거요청일 존재?)&lt;br&gt;&lt;/font&gt;&lt;span style=&quot;font-size: 10px&quot;&gt;ORDER.SELECTED&lt;br&gt;&amp;gt; 0&lt;/span&gt;" style="rhombus;whiteSpace=wrap;html=1;" parent="1" vertex="1">
                    <mxGeometry x="916" y="2320" width="228" height="110" as="geometry"/>
                </mxCell>
                <mxCell id="0ODxhAR9AB6k-3VPqA4q-214" value="" style="edgeStyle=orthogonalEdgeStyle;rounded=0;orthogonalLoop=1;jettySize=auto;html=1;fontSize=11;" parent="1" source="0ODxhAR9AB6k-3VPqA4q-183" target="0ODxhAR9AB6k-3VPqA4q-213" edge="1">
                    <mxGeometry relative="1" as="geometry"/>
                </mxCell>
                <mxCell id="0ODxhAR9AB6k-3VPqA4q-215" value="TRUE" style="edgeLabel;html=1;align=center;verticalAlign=middle;resizable=0;points=[];fontSize=11;" parent="0ODxhAR9AB6k-3VPqA4q-214" vertex="1" connectable="0">
                    <mxGeometry x="-0.391" relative="1" as="geometry">
                        <mxPoint as="offset"/>
                    </mxGeometry>
                </mxCell>
                <mxCell id="0ODxhAR9AB6k-3VPqA4q-223" value="" style="edgeStyle=orthogonalEdgeStyle;rounded=0;orthogonalLoop=1;jettySize=auto;html=1;fontSize=11;entryX=0.5;entryY=1;entryDx=0;entryDy=0;" parent="1" source="0ODxhAR9AB6k-3VPqA4q-183" target="19" edge="1">
                    <mxGeometry relative="1" as="geometry">
                        <mxPoint x="1030.0000000000005" y="2050" as="targetPoint"/>
                    </mxGeometry>
                </mxCell>
                <mxCell id="0ODxhAR9AB6k-3VPqA4q-224" value="FALSE" style="edgeLabel;html=1;align=center;verticalAlign=middle;resizable=0;points=[];fontSize=11;" parent="0ODxhAR9AB6k-3VPqA4q-223" vertex="1" connectable="0">
                    <mxGeometry x="-0.2536" y="1" relative="1" as="geometry">
                        <mxPoint as="offset"/>
                    </mxGeometry>
                </mxCell>
                <mxCell id="0ODxhAR9AB6k-3VPqA4q-183" value="&lt;span style=&quot;font-size: 10px&quot;&gt;배출자가 1순위자를 &lt;br&gt;선정해야할 DEADLINE이 지났는가 ?&lt;/span&gt;&lt;br style=&quot;font-size: 10px&quot;&gt;&lt;span style=&quot;font-size: 10px&quot;&gt;ORDER.MAX_SELECTION_AT&lt;/span&gt;&lt;br&gt;&lt;span style=&quot;font-size: 10px&quot;&gt;&amp;lt;= NOW()&lt;/span&gt;" style="rhombus;whiteSpace=wrap;html=1;" parent="1" vertex="1">
                    <mxGeometry x="916" y="2130" width="228" height="110" as="geometry"/>
                </mxCell>
                <mxCell id="0ODxhAR9AB6k-3VPqA4q-190" value="" style="edgeStyle=orthogonalEdgeStyle;rounded=0;orthogonalLoop=1;jettySize=auto;html=1;fontSize=11;" parent="1" source="0ODxhAR9AB6k-3VPqA4q-186" target="0ODxhAR9AB6k-3VPqA4q-189" edge="1">
                    <mxGeometry relative="1" as="geometry"/>
                </mxCell>
                <mxCell id="0ODxhAR9AB6k-3VPqA4q-191" value="TRUE" style="edgeLabel;html=1;align=center;verticalAlign=middle;resizable=0;points=[];fontSize=11;" parent="0ODxhAR9AB6k-3VPqA4q-190" vertex="1" connectable="0">
                    <mxGeometry x="-0.2919" relative="1" as="geometry">
                        <mxPoint as="offset"/>
                    </mxGeometry>
                </mxCell>
                <mxCell id="0ODxhAR9AB6k-3VPqA4q-193" value="" style="edgeStyle=orthogonalEdgeStyle;rounded=0;orthogonalLoop=1;jettySize=auto;html=1;fontSize=11;" parent="1" source="0ODxhAR9AB6k-3VPqA4q-186" target="0ODxhAR9AB6k-3VPqA4q-192" edge="1">
                    <mxGeometry relative="1" as="geometry"/>
                </mxCell>
                <mxCell id="0ODxhAR9AB6k-3VPqA4q-194" value="FALSE" style="edgeLabel;html=1;align=center;verticalAlign=middle;resizable=0;points=[];fontSize=11;" parent="0ODxhAR9AB6k-3VPqA4q-193" vertex="1" connectable="0">
                    <mxGeometry x="-0.2679" y="1" relative="1" as="geometry">
                        <mxPoint as="offset"/>
                    </mxGeometry>
                </mxCell>
                <mxCell id="0ODxhAR9AB6k-3VPqA4q-186" value="&lt;span style=&quot;font-size: 10px&quot;&gt;1순위자가 배출자의 &lt;br&gt;요청을 수락하였는가?&lt;/span&gt;&lt;br style=&quot;font-size: 10px&quot;&gt;&lt;span style=&quot;font-size: 10px&quot;&gt;ORDER.COLLECTOR_SELECTION_CONFIRMED&lt;/span&gt;&lt;br&gt;&lt;span style=&quot;font-size: 10px&quot;&gt;= TRUE&lt;/span&gt;" style="rhombus;whiteSpace=wrap;html=1;" parent="1" vertex="1">
                    <mxGeometry x="1224" y="2320" width="228" height="110" as="geometry"/>
                </mxCell>
                <mxCell id="0ODxhAR9AB6k-3VPqA4q-189" value="&lt;font style=&quot;font-size: 11px&quot;&gt;213&lt;br&gt;&lt;/font&gt;&lt;table style=&quot;font-size: 11px&quot;&gt;&lt;tbody&gt;&lt;tr&gt;&lt;td&gt;유찰&lt;/td&gt;&lt;/tr&gt;&lt;/tbody&gt;&lt;/table&gt;" style="whiteSpace=wrap;html=1;" parent="1" vertex="1">
                    <mxGeometry x="1278" y="2535" width="120" height="60" as="geometry"/>
                </mxCell>
                <mxCell id="0ODxhAR9AB6k-3VPqA4q-196" value="" style="edgeStyle=orthogonalEdgeStyle;rounded=0;orthogonalLoop=1;jettySize=auto;html=1;fontSize=11;" parent="1" source="0ODxhAR9AB6k-3VPqA4q-192" target="0ODxhAR9AB6k-3VPqA4q-195" edge="1">
                    <mxGeometry relative="1" as="geometry"/>
                </mxCell>
                <mxCell id="0ODxhAR9AB6k-3VPqA4q-199" value="TRUE" style="edgeLabel;html=1;align=center;verticalAlign=middle;resizable=0;points=[];fontSize=11;" parent="0ODxhAR9AB6k-3VPqA4q-196" vertex="1" connectable="0">
                    <mxGeometry x="-0.2179" y="-1" relative="1" as="geometry">
                        <mxPoint as="offset"/>
                    </mxGeometry>
                </mxCell>
                <mxCell id="0ODxhAR9AB6k-3VPqA4q-198" value="" style="edgeStyle=orthogonalEdgeStyle;rounded=0;orthogonalLoop=1;jettySize=auto;html=1;fontSize=11;" parent="1" source="0ODxhAR9AB6k-3VPqA4q-192" target="0ODxhAR9AB6k-3VPqA4q-197" edge="1">
                    <mxGeometry relative="1" as="geometry"/>
                </mxCell>
                <mxCell id="0ODxhAR9AB6k-3VPqA4q-200" value="FALSE" style="edgeLabel;html=1;align=center;verticalAlign=middle;resizable=0;points=[];fontSize=11;" parent="0ODxhAR9AB6k-3VPqA4q-198" vertex="1" connectable="0">
                    <mxGeometry x="-0.325" y="-1" relative="1" as="geometry">
                        <mxPoint as="offset"/>
                    </mxGeometry>
                </mxCell>
                <mxCell id="0ODxhAR9AB6k-3VPqA4q-192" value="&lt;span style=&quot;font-size: 10px&quot;&gt;2순위수거자가 배출자의 &lt;br&gt;요청을 응답하였는가?&lt;/span&gt;&lt;br style=&quot;font-size: 10px&quot;&gt;&lt;span style=&quot;font-size: 10px&quot;&gt;BIDDING.&lt;/span&gt;&lt;span style=&quot;font-size: 10px&quot;&gt;MAKE_DECISION&lt;/span&gt;&lt;br&gt;&lt;span style=&quot;font-size: 10px&quot;&gt;IS NOT NULL&lt;/span&gt;" style="rhombus;whiteSpace=wrap;html=1;" parent="1" vertex="1">
                    <mxGeometry x="1532" y="2320" width="228" height="110" as="geometry"/>
                </mxCell>
                <mxCell id="0ODxhAR9AB6k-3VPqA4q-202" value="" style="edgeStyle=orthogonalEdgeStyle;rounded=0;orthogonalLoop=1;jettySize=auto;html=1;fontSize=11;" parent="1" source="0ODxhAR9AB6k-3VPqA4q-195" target="0ODxhAR9AB6k-3VPqA4q-201" edge="1">
                    <mxGeometry relative="1" as="geometry"/>
                </mxCell>
                <mxCell id="0ODxhAR9AB6k-3VPqA4q-203" value="FALSE" style="edgeLabel;html=1;align=center;verticalAlign=middle;resizable=0;points=[];fontSize=11;" parent="0ODxhAR9AB6k-3VPqA4q-202" vertex="1" connectable="0">
                    <mxGeometry x="-0.2217" y="-1" relative="1" as="geometry">
                        <mxPoint as="offset"/>
                    </mxGeometry>
                </mxCell>
                <mxCell id="0ODxhAR9AB6k-3VPqA4q-205" value="" style="edgeStyle=orthogonalEdgeStyle;rounded=0;orthogonalLoop=1;jettySize=auto;html=1;fontSize=11;" parent="1" source="0ODxhAR9AB6k-3VPqA4q-195" target="0ODxhAR9AB6k-3VPqA4q-204" edge="1">
                    <mxGeometry relative="1" as="geometry"/>
                </mxCell>
                <mxCell id="0ODxhAR9AB6k-3VPqA4q-210" value="TRUE" style="edgeLabel;html=1;align=center;verticalAlign=middle;resizable=0;points=[];fontSize=11;" parent="0ODxhAR9AB6k-3VPqA4q-205" vertex="1" connectable="0">
                    <mxGeometry x="-0.3107" relative="1" as="geometry">
                        <mxPoint as="offset"/>
                    </mxGeometry>
                </mxCell>
                <mxCell id="0ODxhAR9AB6k-3VPqA4q-195" value="&lt;span style=&quot;font-size: 10px&quot;&gt;수거자가&amp;nbsp;&lt;/span&gt;&lt;span style=&quot;font-size: 10px&quot;&gt;배출자의 &lt;br&gt;요청을 수락하였는가?&lt;/span&gt;&lt;br style=&quot;font-size: 10px&quot;&gt;&lt;span style=&quot;font-size: 10px&quot;&gt;BIDDING&lt;/span&gt;&lt;span style=&quot;font-size: 10px&quot;&gt;.&lt;/span&gt;&lt;span style=&quot;font-size: 10px&quot;&gt;MAKE_DECISION&lt;/span&gt;&lt;br&gt;&lt;span style=&quot;font-size: 10px&quot;&gt;= TRUE&lt;/span&gt;" style="rhombus;whiteSpace=wrap;html=1;" parent="1" vertex="1">
                    <mxGeometry x="1532" y="2510" width="228" height="110" as="geometry"/>
                </mxCell>
                <mxCell id="0ODxhAR9AB6k-3VPqA4q-217" value="" style="edgeStyle=orthogonalEdgeStyle;rounded=0;orthogonalLoop=1;jettySize=auto;html=1;fontSize=11;" parent="1" source="0ODxhAR9AB6k-3VPqA4q-197" target="0ODxhAR9AB6k-3VPqA4q-216" edge="1">
                    <mxGeometry relative="1" as="geometry"/>
                </mxCell>
                <mxCell id="0ODxhAR9AB6k-3VPqA4q-220" value="FALSE" style="edgeLabel;html=1;align=center;verticalAlign=middle;resizable=0;points=[];fontSize=11;" parent="0ODxhAR9AB6k-3VPqA4q-217" vertex="1" connectable="0">
                    <mxGeometry x="-0.3823" relative="1" as="geometry">
                        <mxPoint as="offset"/>
                    </mxGeometry>
                </mxCell>
                <mxCell id="0ODxhAR9AB6k-3VPqA4q-219" value="" style="edgeStyle=orthogonalEdgeStyle;rounded=0;orthogonalLoop=1;jettySize=auto;html=1;fontSize=11;" parent="1" source="0ODxhAR9AB6k-3VPqA4q-197" target="0ODxhAR9AB6k-3VPqA4q-218" edge="1">
                    <mxGeometry relative="1" as="geometry"/>
                </mxCell>
                <mxCell id="0ODxhAR9AB6k-3VPqA4q-221" value="TRUE" style="edgeLabel;html=1;align=center;verticalAlign=middle;resizable=0;points=[];fontSize=11;" parent="0ODxhAR9AB6k-3VPqA4q-219" vertex="1" connectable="0">
                    <mxGeometry x="-0.3582" y="2" relative="1" as="geometry">
                        <mxPoint as="offset"/>
                    </mxGeometry>
                </mxCell>
                <mxCell id="0ODxhAR9AB6k-3VPqA4q-197" value="&lt;span style=&quot;font-size: 10px&quot;&gt;2순위수거자가 배출자의 &lt;br&gt;요청에 응답해야할 DEADLINE을 지났는가?&lt;/span&gt;&lt;br style=&quot;font-size: 10px&quot;&gt;&lt;span style=&quot;font-size: 10px&quot;&gt;BIDDING&lt;/span&gt;&lt;span style=&quot;font-size: 10px&quot;&gt;.&lt;/span&gt;&lt;span style=&quot;font-size: 10px&quot;&gt;MAX_DECISION_AT&lt;/span&gt;&lt;br&gt;&lt;span style=&quot;font-size: 10px&quot;&gt;&amp;lt;= NOW()&lt;/span&gt;" style="rhombus;whiteSpace=wrap;html=1;" parent="1" vertex="1">
                    <mxGeometry x="1840" y="2320" width="228" height="110" as="geometry"/>
                </mxCell>
                <mxCell id="0ODxhAR9AB6k-3VPqA4q-201" value="&lt;font style=&quot;font-size: 11px&quot;&gt;239&lt;br&gt;&lt;/font&gt;&lt;table style=&quot;font-size: 11px&quot;&gt;&lt;tbody&gt;&lt;tr&gt;&lt;td&gt;낙찰포기&lt;/td&gt;&lt;/tr&gt;&lt;/tbody&gt;&lt;/table&gt;" style="whiteSpace=wrap;html=1;" parent="1" vertex="1">
                    <mxGeometry x="1894" y="2535" width="120" height="60" as="geometry"/>
                </mxCell>
                <mxCell id="0ODxhAR9AB6k-3VPqA4q-207" value="" style="edgeStyle=orthogonalEdgeStyle;rounded=0;orthogonalLoop=1;jettySize=auto;html=1;fontSize=11;" parent="1" source="0ODxhAR9AB6k-3VPqA4q-204" target="0ODxhAR9AB6k-3VPqA4q-206" edge="1">
                    <mxGeometry relative="1" as="geometry"/>
                </mxCell>
                <mxCell id="0ODxhAR9AB6k-3VPqA4q-211" value="FALSE" style="edgeLabel;html=1;align=center;verticalAlign=middle;resizable=0;points=[];fontSize=11;" parent="0ODxhAR9AB6k-3VPqA4q-207" vertex="1" connectable="0">
                    <mxGeometry x="-0.3198" y="-1" relative="1" as="geometry">
                        <mxPoint as="offset"/>
                    </mxGeometry>
                </mxCell>
                <mxCell id="0ODxhAR9AB6k-3VPqA4q-209" value="" style="edgeStyle=orthogonalEdgeStyle;rounded=0;orthogonalLoop=1;jettySize=auto;html=1;fontSize=11;" parent="1" source="0ODxhAR9AB6k-3VPqA4q-204" target="0ODxhAR9AB6k-3VPqA4q-208" edge="1">
                    <mxGeometry relative="1" as="geometry"/>
                </mxCell>
                <mxCell id="0ODxhAR9AB6k-3VPqA4q-212" value="TRUE" style="edgeLabel;html=1;align=center;verticalAlign=middle;resizable=0;points=[];fontSize=11;" parent="0ODxhAR9AB6k-3VPqA4q-209" vertex="1" connectable="0">
                    <mxGeometry x="-0.3279" y="-2" relative="1" as="geometry">
                        <mxPoint as="offset"/>
                    </mxGeometry>
                </mxCell>
                <mxCell id="0ODxhAR9AB6k-3VPqA4q-204" value="&lt;span style=&quot;font-size: 10px&quot;&gt;계약종료일이 지났는가?&lt;/span&gt;&lt;br style=&quot;font-size: 10px&quot;&gt;&lt;span style=&quot;font-size: 10px&quot;&gt;ORDER.CLOSE_AT&lt;br&gt;&lt;/span&gt;&amp;lt;= NOW()" style="rhombus;whiteSpace=wrap;html=1;" parent="1" vertex="1">
                    <mxGeometry x="1532" y="2700" width="228" height="110" as="geometry"/>
                </mxCell>
                <mxCell id="0ODxhAR9AB6k-3VPqA4q-206" value="&lt;font style=&quot;font-size: 11px&quot;&gt;218&lt;br&gt;&lt;/font&gt;&lt;table style=&quot;font-size: 11px&quot;&gt;&lt;tbody&gt;&lt;tr&gt;&lt;td&gt;기존거래&lt;/td&gt;&lt;/tr&gt;&lt;/tbody&gt;&lt;/table&gt;" style="whiteSpace=wrap;html=1;" parent="1" vertex="1">
                    <mxGeometry x="1278" y="2725" width="120" height="60" as="geometry"/>
                </mxCell>
                <mxCell id="0ODxhAR9AB6k-3VPqA4q-208" value="&lt;font style=&quot;font-size: 11px&quot;&gt;212&lt;br&gt;&lt;/font&gt;&lt;table style=&quot;font-size: 11px&quot;&gt;&lt;tbody&gt;&lt;tr&gt;&lt;td&gt;수거중&lt;/td&gt;&lt;/tr&gt;&lt;/tbody&gt;&lt;/table&gt;" style="whiteSpace=wrap;html=1;" parent="1" vertex="1">
                    <mxGeometry x="1586" y="2915" width="120" height="60" as="geometry"/>
                </mxCell>
                <mxCell id="0ODxhAR9AB6k-3VPqA4q-213" value="&lt;font style=&quot;font-size: 11px&quot;&gt;&lt;table&gt;&lt;tbody&gt;&lt;tr&gt;&lt;td&gt;&lt;/td&gt;&lt;/tr&gt;&lt;/tbody&gt;&lt;/table&gt;213&lt;br&gt;&lt;/font&gt;&lt;table style=&quot;font-size: 11px&quot;&gt;&lt;tbody&gt;&lt;tr&gt;&lt;td&gt;유찰&lt;/td&gt;&lt;/tr&gt;&lt;/tbody&gt;&lt;/table&gt;&lt;table style=&quot;font-size: 11px&quot;&gt;&lt;tbody&gt;&lt;tr&gt;&lt;td&gt;&lt;/td&gt;&lt;/tr&gt;&lt;/tbody&gt;&lt;/table&gt;" style="whiteSpace=wrap;html=1;" parent="1" vertex="1">
                    <mxGeometry x="1278" y="2155" width="120" height="60" as="geometry"/>
                </mxCell>
                <mxCell id="0ODxhAR9AB6k-3VPqA4q-216" value="&lt;font style=&quot;font-size: 11px&quot;&gt;236&lt;br&gt;&lt;/font&gt;&lt;table style=&quot;font-size: 11px&quot;&gt;&lt;tbody&gt;&lt;tr&gt;&lt;td&gt;낙찰결정중&lt;/td&gt;&lt;/tr&gt;&lt;/tbody&gt;&lt;/table&gt;" style="whiteSpace=wrap;html=1;" parent="1" vertex="1">
                    <mxGeometry x="1894" y="2155" width="120" height="60" as="geometry"/>
                </mxCell>
                <mxCell id="0ODxhAR9AB6k-3VPqA4q-218" value="&lt;font style=&quot;font-size: 11px&quot;&gt;239&lt;br&gt;&lt;/font&gt;&lt;table style=&quot;font-size: 11px&quot;&gt;&lt;tbody&gt;&lt;tr&gt;&lt;td&gt;낙찰포기&lt;/td&gt;&lt;/tr&gt;&lt;/tbody&gt;&lt;/table&gt;" style="whiteSpace=wrap;html=1;" parent="1" vertex="1">
                    <mxGeometry x="2202" y="2345" width="120" height="60" as="geometry"/>
                </mxCell>
                <mxCell id="6" value="&lt;font style=&quot;font-size: 11px&quot;&gt;207&lt;br&gt;&lt;/font&gt;&lt;table style=&quot;font-size: 11px&quot;&gt;&lt;tbody&gt;&lt;tr&gt;&lt;td&gt;입찰포기&lt;/td&gt;&lt;/tr&gt;&lt;/tbody&gt;&lt;/table&gt;" style="whiteSpace=wrap;html=1;" vertex="1" parent="1">
                    <mxGeometry x="46" y="2345" width="120" height="60" as="geometry"/>
                </mxCell>
                <mxCell id="9" value="" style="edgeStyle=none;html=1;exitX=0.5;exitY=0;exitDx=0;exitDy=0;" edge="1" parent="1" source="7" target="6">
                    <mxGeometry relative="1" as="geometry"/>
                </mxCell>
                <mxCell id="11" value="TRUE" style="edgeLabel;html=1;align=center;verticalAlign=middle;resizable=0;points=[];" vertex="1" connectable="0" parent="9">
                    <mxGeometry x="-0.26" relative="1" as="geometry">
                        <mxPoint as="offset"/>
                    </mxGeometry>
                </mxCell>
                <mxCell id="10" style="edgeStyle=none;html=1;entryX=0.5;entryY=1;entryDx=0;entryDy=0;exitX=0.5;exitY=0;exitDx=0;exitDy=0;" edge="1" parent="1" source="0ODxhAR9AB6k-3VPqA4q-118" target="8">
                    <mxGeometry relative="1" as="geometry"/>
                </mxCell>
                <mxCell id="12" value="FALSE" style="edgeLabel;html=1;align=center;verticalAlign=middle;resizable=0;points=[];" vertex="1" connectable="0" parent="10">
                    <mxGeometry x="-0.176" y="1" relative="1" as="geometry">
                        <mxPoint x="-1" as="offset"/>
                    </mxGeometry>
                </mxCell>
                <mxCell id="13" style="edgeStyle=none;html=1;entryX=1;entryY=0.5;entryDx=0;entryDy=0;" edge="1" parent="1" source="7" target="0ODxhAR9AB6k-3VPqA4q-118">
                    <mxGeometry relative="1" as="geometry"/>
                </mxCell>
                <mxCell id="14" value="FALSE" style="edgeLabel;html=1;align=center;verticalAlign=middle;resizable=0;points=[];" vertex="1" connectable="0" parent="13">
                    <mxGeometry x="-0.1651" y="-1" relative="1" as="geometry">
                        <mxPoint as="offset"/>
                    </mxGeometry>
                </mxCell>
                <mxCell id="7" value="&lt;span style=&quot;font-size: 10px&quot;&gt;수거자가 입찰을 포기하였는가?BIDDING.CANCEL_BIDDING=TRUE&lt;br&gt;&lt;/span&gt;" style="rhombus;whiteSpace=wrap;html=1;" vertex="1" parent="1">
                    <mxGeometry x="-8" y="2510" width="228" height="110" as="geometry"/>
                </mxCell>
                <mxCell id="8" value="&lt;font style=&quot;font-size: 11px&quot;&gt;226&lt;br&gt;&lt;/font&gt;&lt;table style=&quot;font-size: 11px&quot;&gt;&lt;tbody&gt;&lt;tr&gt;&lt;td&gt;낙찰대기중&lt;/td&gt;&lt;/tr&gt;&lt;/tbody&gt;&lt;/table&gt;" style="whiteSpace=wrap;html=1;" vertex="1" parent="1">
                    <mxGeometry x="-304" y="2345" width="120" height="60" as="geometry"/>
                </mxCell>
                <mxCell id="15" value="" style="rounded=0;whiteSpace=wrap;html=1;fillColor=none;" vertex="1" parent="1">
                    <mxGeometry x="-30" y="2300" width="270" height="350" as="geometry"/>
                </mxCell>
                <mxCell id="19" value="&lt;font style=&quot;font-size: 11px&quot;&gt;245&lt;br&gt;&lt;table&gt;&lt;tbody&gt;&lt;tr&gt;&lt;td&gt;낙찰결정중&lt;/td&gt;&lt;/tr&gt;&lt;/tbody&gt;&lt;/table&gt;&lt;/font&gt;" style="whiteSpace=wrap;html=1;" vertex="1" parent="1">
                    <mxGeometry x="970" y="1965" width="120" height="60" as="geometry"/>
                </mxCell>
                <mxCell id="23" value="" style="rounded=0;whiteSpace=wrap;html=1;fontSize=10;fillColor=none;" vertex="1" parent="1">
                    <mxGeometry x="1480" y="2070" width="910" height="930" as="geometry"/>
                </mxCell>
            </root>
        </mxGraphModel>
    </diagram>
</mxfile>